<?xml version="1.0" encoding="UTF-8" standalone="no"?>
<svg
   width="707"
   height="1307"
   viewBox="0 0 707 1307"
   fill="none"
   version="1.1"
   id="svg4"
   sodipodi:docname="Ellipse 2135right.svg"
   xml:space="preserve"
   xmlns:inkscape="http://www.inkscape.org/namespaces/inkscape"
   xmlns:sodipodi="http://sodipodi.sourceforge.net/DTD/sodipodi-0.dtd"
   xmlns="http://www.w3.org/2000/svg"
   xmlns:svg="http://www.w3.org/2000/svg"><defs
     id="defs8"><linearGradient
       id="paint0_linear_0_1672"
       x1="322"
       y1="-0.00015637001"
       x2="963.63702"
       y2="997.77899"
       gradientUnits="userSpaceOnUse"><stop
         stop-color="#3CA0D2"
         id="stop116" /><stop
         offset="1"
         stop-color="#48DCA6"
         id="stop118" /></linearGradient></defs><sodipodi:namedview
     id="namedview6"
     pagecolor="#ffffff"
     bordercolor="#000000"
     borderopacity="0.25"
     inkscape:showpageshadow="2"
     inkscape:pageopacity="0.0"
     inkscape:pagecheckerboard="0"
     inkscape:deskcolor="#d1d1d1"
     showgrid="false"
     showguides="true"><sodipodi:guide
       position="419.51377,-2.0688612e-06"
       orientation="0,-1"
       id="guide187"
       inkscape:locked="false" /><sodipodi:guide
       position="433.35911,154.37553"
       orientation="0,-1"
       id="guide189"
       inkscape:locked="false" /><sodipodi:guide
       position="417.05967,71.485203"
       orientation="0,-1"
       id="guide191"
       inkscape:locked="false" /></sodipodi:namedview><path
     d="m 1266.5,653.5 c 0,360.66 -283.418,653 -633,653 -349.582,0 -633,-292.34 -633,-653 0,-360.657 283.418,-653 633,-653 349.582,0 633,292.343 633,653 z"
     stroke="#d1cb28"
     id="path2" /><g
     style="fill:none"
     id="g131"
     transform="translate(84.57948,84.289105)"><path
       d="M 1117,575.5 C 1117,893.34 866.951,1151 558.5,1151 250.049,1151 0,893.34 0,575.5 0,257.66 250.049,0 558.5,0 866.951,0 1117,257.66 1117,575.5 Z"
       fill="url(#paint0_linear_0_1672)"
       id="path114"
       style="fill:url(#paint0_linear_0_1672)" /></g></svg>
