<?xml version="1.0" encoding="UTF-8" standalone="no"?>
<svg
   width="886"
   height="1233"
   viewBox="0 0 886 1233"
   fill="none"
   version="1.1"
   id="svg4"
   sodipodi:docname="Vector (2).svg"
   xmlns:inkscape="http://www.inkscape.org/namespaces/inkscape"
   xmlns:sodipodi="http://sodipodi.sourceforge.net/DTD/sodipodi-0.dtd"
   xmlns="http://www.w3.org/2000/svg"
   xmlns:svg="http://www.w3.org/2000/svg">
  <defs
     id="defs8" />
  <sodipodi:namedview
     id="namedview6"
     pagecolor="#ffffff"
     bordercolor="#000000"
     borderopacity="0.25"
     inkscape:showpageshadow="2"
     inkscape:pageopacity="0.0"
     inkscape:pagecheckerboard="0"
     inkscape:deskcolor="#d1d1d1"
     showgrid="false" />
  <path
     d="m -190.154,65.2397 c 8.428,-9.9258 9.265,-12.0783 19.809,-21.7007 m -21.109,35.1366 c 12.654,-22.2573 24.161,-45.4359 36.212,-56.5144 m -37.001,60.9541 c 8.498,-18.9756 23.425,-41.9119 45.788,-64.456 m -49.832,75.1485 c 24.949,-30.3427 44.845,-53.5595 54.795,-76.6478 m -53.863,85.301 c 15.847,-29.7621 37.442,-53.0564 70.748,-96.04747 M -196.979,104.88 c 22.857,-26.6111 44.56,-54.8256 73.474,-98.44327 m -70.34,105.53127 c 19.18,-36.594 52.075,-68.8777 81.303,-111.633902 M -196.175,118.731 C -167.599,75.9574 -141.707,39.6817 -108.16,2.29563 M -199.196,125.405 c 38.007,-39.767 64.608,-87.251 93.021,-119.51905 M -194.021,130.335 c 40.466,-44.2262 68.879,-96.0049 93.517,-128.991 m -89.215,138.03 c 22.831,-37.469 53.401,-83.3054 92.8186,-138.823892 M -190.735,142.774 C -163.931,104.698 -142.6,76.0422 -86.4223,6.02789 M -190.714,146.849 C -170.34,114.259 -144.987,84.2703 -84.5062,2.98391 M -184.948,147.178 C -152.581,101.146 -116.415,54.3828 -79.1452,4.8648 M -187.486,155.163 C -162.505,120.476 -138.764,88.1367 -76.9943,2.93163 M -178.375,161.057 c 19.489,-37.92 40.298,-61.5153 108.7572,-154.1791 M -183.477,159.675 C -144.892,110.923 -109.386,59.3863 -65.5613,4.813 M -175.983,164.762 C -133.11,105.082 -91.6559,40.0754 -65.8296,8.7456 M -173.402,166.514 C -149.293,128.092 -117.353,90.1715 -60.5145,4.72539 M -169.609,168.906 c 17.275,-33.778 47.443,-69.0679 112.8242,-157.3452 M -167.977,171.727 c 27.346,-42.629 54.061,-85.3014 113.3085,-160.5483 M -170.187,182.076 C -134.389,128.422 -97.3044,80.8266 -49.8754,8.82216 M -168.694,179.176 c 31.549,-38.879 61.558,-83.9444 120.2809,-164.8181 M -163.804,186.175 C -131.392,140.114 -96.6295,97.0182 -38.0007,13.2423 M -158.334,185.083 c 31.28,-36.011 61.9269,-82.406 119.8829,-164.1826 M -160.967,189.859 c 33.805,-46.15 69.0238,-86.842 126.8639,-171.9218 M -151.952,195.942 C -108.002,129.248 -62.9044,69.8333 -31.7456,24.5557 M -152.029,196.038 c 32.636,-37.732 64.536,-81.269 121.3653,-172.8694 M -147.519,200.873 c 22.952,-36.479 52.8499,-73.298 120.0079,-173.7389 M -146.013,202.987 C -106.632,147.658 -75.1618,96.2649 -20.5382,26.4231 M -145.721,209.457 c 35.914,-50.1 72.3014,-102.01 129.0887,-176.9586 M -138.677,211.18 C -100.428,142.06 -50.6713,81.1134 -14.4579,38.1855 M -141.548,210.753 c 30.342,-34.811 54.6692,-74.396 129.4758,-169.5441 M -133.479,215.913 C -97.0996,164.045 -55.0726,107.671 -9.88278,39.752 M -136.435,216.854 C -99.3647,164.649 -62.0217,116.947 -8.38093,43.1752 M -129.321,224.392 C -89.9575,161.645 -46.4282,105.88 -4.53772,50.3681 M -124.387,226.987 C -102.05,191.899 -74.731,152.33 0.112072,51.6455 M -122.982,230.202 C -84.3466,172.385 -43.2237,117.028 0.131474,56.6667 M -121.059,228.891 C -83.7201,181.786 -48.3184,133.453 4.16883,57.5904 M -116.67,230.011 C -81.3079,182.753 -42.6919,128.768 7.52049,64.6213 M -113.46,236.37 C -70.7523,165.389 -24.7867,98.9876 7.8968,68.5707 M -110.217,239.775 C -76.2748,183.452 -35.6993,131.073 11.5228,67.7317 M -106.207,239.849 C -67.0869,184.668 -30.1595,132.733 9.48233,73.9298 M -109.931,246.986 C -77.9238,211.83 -51.991,172.571 12.1746,76.4796 M -106.274,244.34 C -66.5401,191.39 -32.2922,142.516 17.5413,79.8642 M -100.701,251.809 C -64.2877,197.916 -33.8915,147.687 24.5965,81.4662 M -99.9929,248.967 C -48.8439,187.008 -2.14336,119.101 23.3892,81.7453 M -92.5772,258.057 C -66.796,221.539 -37.541,185.543 24.2451,84.5377 M -88.9444,258.526 C -53.5024,205.47 -16.5609,150.711 33.0082,91.5787 M -91.0273,258.531 C -48.4111,205.27 -15.0404,156.044 33.3569,89.3006 M -86.1889,261.483 C -59.6672,227.559 -33.1616,191.113 38.3386,94.7701 M -83.2544,266.076 C -47.0483,217.054 -11.1252,168.658 39.1813,97.3604 M -76.2928,270.357 c 20.0662,-34.152 41.493,-67.19 121.3499,-168.786 M -79.81,268.476 C -38.4438,223.592 -5.87979,175.344 44.2294,104.075 M -76.2884,274.157 C -30.6325,221.725 4.66746,162.757 48.3289,105.818 M -72.2197,277.871 C -31.0126,223.159 6.92713,162.426 49.9074,109.083 M -64.9311,276.678 C -37.1506,237.447 -7.00517,198.865 51.6365,111.887 M -62.9779,282.821 C -27.1456,236.077 5.53953,189.485 56.7924,109.425 M -62.5432,284.087 C -29.7975,240.578 -1.77813,192.027 57.8673,113.409 M -57.993,284.831 C -22.6012,241.257 14.0897,193.034 62.261,118.422 M -57.8686,285.929 C -23.1552,242.932 5.10901,196.756 69.0706,120.156 M -52.638,291.68 C -12.9678,227.765 36.1737,163.692 65.9717,120.658 M -45.5007,296.707 C -7.80965,233.81 37.5071,173.921 69.6612,121.584 M -43.8348,298.142 C -19.4194,261.784 3.8272,221.819 75.8162,127.984 M -38.7502,297.718 C -4.87816,249.378 25.7472,200.961 78.724,127.461 M -38.0221,296.977 C -1.40491,248.854 35.3911,204.455 85.4705,131.092 M -38.96,301.397 C 1.79759,251.262 46.8388,198.718 82.8013,132.998 M -32.3834,307.581 C -5.91409,263.182 30.8951,220.878 90.2312,134.387 M -27.9856,309.893 C 3.62981,265.636 34.1304,219.185 90.4623,141.809 M -22.5165,308.078 C 23.0258,246.668 65.1117,186.785 91.9588,139.159 M -24.5408,312.969 C 3.14513,276.28 29.4603,235.118 101.449,141.358 M -18.0233,313.588 C 24.6351,258.024 59.5448,197.137 105.464,145.065 M -15.4461,315.4 C 9.30322,276.323 39.9888,241.221 107.737,149.948 M -10.3638,317.074 C 24.2565,268.673 59.8166,217.861 107.815,150.703 M -10.1678,324.431 C 30.4692,262.412 72.5244,204.333 111.701,156.137 M -6.44529,321.613 C 23.7561,287.42 49.9744,251.176 114.163,152.956 M 0.472037,322.373 C 26.512,285.254 52.036,244.064 115.476,157.959 M -1.23849,325.844 C 46.6262,261.522 96.7633,197.93 121.621,157.978 M 1.60994,327.593 C 36.8488,276.122 73.2354,229.617 128.031,161.226 M 6.0049,334.017 C 34.0772,285.15 65.8443,246.003 126.594,163.828 M 7.822,334.787 C 39.1481,291.544 72.7716,252.656 133.023,165.663 M 14.5684,339.438 C 44.8199,293.022 77.3055,247.353 138.146,172.128 M 14.5912,341.01 C 66.1702,276.736 113.435,212.525 137.231,169.035 M 20.3741,340.35 C 51.1777,292.475 85.4358,241.404 141.35,173.96 M 26.8913,341.971 C 73.5719,276.116 120.141,206.264 141.191,172.464 M 28.391,343.332 C 60.979,291.121 100.6,244.294 146.044,178.557 M 29.743,347.275 C 74.1897,288.631 118.699,233.115 152.47,176.444 M 34.9146,352.046 C 70.2245,298.277 107.26,249.409 153.547,179.117 M 36.8461,353.274 C 66.1234,317.101 100.073,275.61 155.596,183.875 M 41.583,351.679 C 65.138,318.31 94.6711,277.675 162.211,184.371 M 46.1003,357.936 C 70.3407,317.823 91.4944,282.527 165.538,184.824 M 51.1509,355.648 C 83.1368,307.686 121.676,258.896 170.82,191.414 M 48.4398,357.421 C 88.2762,311.75 122.268,257.648 175.639,194.097 M 58.1373,361.875 C 87.9831,313.237 126.205,259.803 176.404,191.932 M 58.5966,365.178 C 105.276,303.404 150.378,241.576 181.218,198.851 M 63.036,363.202 C 104.473,300.933 150.144,238.221 180.042,195.311 M 68.3124,367.404 C 95.9987,328.636 125.397,288.422 189.397,201.925 M 65.8137,367.693 C 94.8506,332.827 119.612,296.092 186.943,202.557 M 68.3476,370.257 C 122.139,305.032 162.608,245.535 192.856,206.532 M 73.7008,376.377 C 109.307,331.33 145.323,282.065 196.408,206.875 M 78.8091,376.397 C 108.433,342.189 129.364,304.887 200.024,210.975 M 81.2699,378.322 C 116.476,322.276 159.367,267.517 204.605,208.689 M 87.7155,380.728 C 115.548,336.892 151.183,288.244 204.074,214.378 M 91.0371,379.744 C 122.695,341.686 153.674,295.985 212.098,217.092 M 92.4848,383.593 C 138.181,331.093 172.803,276.068 216.03,215.999 M 95.54,386.127 c 49.398,-59.7 97.641,-125.925 118.261,-167.684 M 95.6158,387.144 C 128.263,353.425 153.054,323.275 219.474,219.441 M 102.366,390.847 C 129.935,359.262 155.343,320.403 222.43,219.65 M 105.831,393.558 c 38.339,-59.007 77.617,-112.879 118.33,-170.81 M 108.129,396.717 C 155.611,328.583 200.454,261.316 230.32,225.022 m -118.057,171.29 c 33.534,-44.45 60.523,-85.724 124.938,-168.579 m -123.94,171.951 c 40.44,-49.643 80.665,-108.845 127.606,-171.335 M 121.831,399.862 c 30.398,-39.807 68.859,-92.044 121.32,-167.053 M 120.43,402.345 C 161.675,354.666 200.04,297.15 246.335,234.161 M 125.636,402.664 C 166.79,349.506 209.99,289.192 248.728,235.93 M 127.592,408.999 C 160.779,363.379 193.779,324.065 252.4,242.167 M 134,411.814 C 172.986,357.198 212.077,297.381 254.296,237.722 M 137.857,411.199 C 166.42,371.114 193.797,335.083 256.25,245.755 M 141.554,411.169 C 166.07,375.962 195.686,333.22 263.568,245.299 M 144.29,412.782 c 34.235,-40.67 66.422,-84.567 117.754,-164.39 M 145.506,422.031 C 191.782,360.65 239.358,298.801 267.092,250.863 M 147.513,420.754 C 203.005,352.193 246.629,288.061 274.694,248.037 M 153.079,422.45 c 28.799,-42.07 59.41,-82.745 122.893,-165.059 M 157.649,427.718 C 196.181,372.897 229.616,324.617 282.953,257.694 M 164.202,428.723 C 200.655,378.34 241.032,319.272 283.059,254.274 M 166.506,426.726 c 23.793,-36.57 52.224,-75.554 120.915,-164.851 M 167.39,427.609 c 35.361,-38.904 64.838,-84.832 121.368,-167.117 M 174.161,431.286 C 217.188,376.499 255.73,319.973 293.637,264.91 M 173.379,437.307 C 212.926,372.412 252.899,316.72 293.634,265.22 M 180.774,433.767 C 202.067,402.669 229.59,367.004 303.306,267.943 M 184.636,437.298 C 223.292,375.159 271.791,315.855 300.762,269.323 M 186.292,444.185 C 212.03,403.88 240.355,362.378 303.508,272.724 M 186.95,440.602 C 220.095,389.334 260.734,340.041 308.092,275.783 M 195.229,441.555 C 228.335,396.466 264.043,350.31 311.65,273.949 M 196.435,446.234 C 231.82,394.101 267.587,350.998 317.648,275.31 M 197.664,446.778 c 32.142,-40.013 68.127,-85.98 119.643,-169.656 M 202.749,451.46 c 26.203,-33.632 50.199,-74.432 123.313,-170.496 M 204.028,455.163 c 30.301,-45.142 66.95,-87.19 122.677,-169.608 M 206.833,454.358 c 46.61,-59.987 86.998,-114.452 121.732,-168.491 M 215.066,456.718 C 249.829,397.42 296.728,341.171 336.414,287.911 m -538.92,754.289 c 6.827,-18.3 21.546,-35.47 32.043,-39.99 M 214.244,460.569 c 35.687,-50.989 74.073,-95.265 120.699,-166.881 m -541.758,761.492 c 10.018,-18.59 30.636,-37.87 45.568,-59.105 M 216.961,465.019 c 38.047,-60.016 81.498,-109.997 121.301,-171.336 m -546.127,771.207 c 15.665,-20.28 28.634,-42.77 56.741,-76.05 M 225.228,464.553 c 46.226,-62.442 95.177,-133.995 116.93,-169.603 m -550.245,775.78 c 18.666,-23.39 39.226,-57.53 58.42,-83.343 M 227.757,466.756 c 38.154,-53.633 70.391,-100.454 120.088,-166.144 m -558.801,785.318 c 19.532,-37.69 46.829,-63.02 72.174,-97.668 M 230.065,469.7 c 38.627,-54.258 78.446,-111.457 120.072,-169.047 m -560.535,787.837 c 28.301,-34.21 55.715,-70.18 78.257,-106.887 M 235.074,471.791 c 40.92,-57.029 83.441,-117.214 117.193,-171.569 M -208.854,1097.7 c 32.729,-46.28 62.225,-84.47 78.535,-112.245 M 234.85,474.52 C 280.661,403.101 330.318,340.836 360.7,304.31 m -572.767,794.89 c 31.887,-37.27 63.167,-76.53 90.069,-114.059 M 242.479,471.891 C 284.183,410.022 329.186,348.442 363.04,308.059 M -206.424,1110.1 c 17.34,-33.84 45.318,-66.83 88.214,-125.522 M 240.218,474.081 c 46.14,-57.882 83.351,-110.888 127.869,-164.751 m -575.497,806.86 c 20.413,-32.59 47.38,-67.39 96.539,-136.501 M 243.779,478.604 C 285.9,419.943 324.179,368.702 371.515,309.9 m -580.48,805.37 c 26.485,-30.32 51.52,-65.26 99.701,-135.566 M 251.555,477.155 c 38.389,-51.55 77.609,-104.508 121.572,-164.919 M -201.26,1123.94 c 30.214,-52.5 70.998,-109.1 98.361,-144.325 M 257.454,479.636 c 38.32,-48.704 78.235,-99.751 119.326,-168.891 m -579.413,815.765 c 25.871,-40.56 54.905,-72.23 102.072,-145.694 M 254.071,485.224 c 45.567,-58.897 82.075,-117.991 127.404,-170.432 m -579.033,815.668 c 29.225,-47.56 64.123,-87.04 102.9747,-148.441 M 259.086,484.131 C 286.845,451.842 319.514,417.81 382.46,315.616 m -581.099,819.054 c 26.536,-42.24 58.023,-75.01 106.8425,-148.321 M 267.391,485.531 c 34.01,-41.732 64.993,-90.106 118.654,-163.67 m -583.483,816.589 c 27.457,-45.7 58.122,-83.96 109.9093,-155.518 M 265.795,492.707 c 43.242,-62.614 85.42,-117.388 123.473,-172.516 M -193.547,1138.9 c 44.517,-57.52 86.137,-116.97 115.1438,-156.172 M 268.059,491.652 c 39.6,-53.101 78.602,-105.802 122.061,-170.079 m -582.239,822.587 c 32.855,-43.55 70.71,-92.11 113.8068,-159.571 M 271.59,495.742 c 42.059,-66.159 89.266,-126.548 125.477,-166.775 m -588.799,821.303 c 45.277,-68.75 92.3678,-127.95 115.5471,-166.761 M 279.678,500.39 c 44.635,-63.163 82.523,-123.555 118.308,-174.235 m -586.905,823.165 c 31.064,-35.45 57.481,-69.66 118.1607,-162.953 M 280.285,498.915 c 43.468,-61.811 92.496,-121.142 120.354,-169.331 m -587.261,827.366 c 30.443,-41.98 64.197,-86.14 118.6972,-164.972 M 284.855,503.762 c 37.238,-58.835 77.379,-110.654 120.582,-169.971 m -587.231,825.179 c 46.242,-64.89 92.2872,-131.39 124.1591,-165.653 M 290.695,505.531 C 326.94,447.635 369.762,390.288 408.248,336.17 m -585.027,825.33 c 37.139,-53.07 71.968,-98.82 118.5091,-169.905 M 294.48,502.347 c 49.941,-63.834 92.096,-134.324 116.837,-164.269 m -583.176,824.012 c 40.323,-63.21 88.4027,-121.39 118.9246,-168.446 M 298.39,506.546 C 337.974,451.372 378.173,390.04 419.718,334.461 m -590.426,832.519 c 27.072,-42.37 53.215,-77.62 122.8892,-175.057 M 296.56,507.808 c 45.81,-52.356 81.317,-110.385 123.793,-166.99 m -586.404,825.592 c 32.51,-45.6 67.7505,-91.37 123.5165,-170.608 M 304.863,509.265 c 45.783,-56.923 91.39,-122.075 121.516,-167.48 m -589.643,829.625 c 30.419,-44.09 58.743,-86.98 124.8661,-175.509 M 307.231,515.726 c 22.586,-45.517 58.745,-83.34 121.893,-173.91 m -593.569,831.394 c 43.801,-50.07 80.0909,-104.74 126.0973,-175.754 M 310.138,518.592 c 42.528,-64.373 90.629,-131.324 117.784,-171.346 m -584.919,829.804 c 37.183,-56.36 71.4712,-106.5 126.5798,-180.293 M 312.33,515.642 c 28.737,-41.559 62.235,-82.097 121.878,-169.354 m -592.831,829.402 c 29.558,-45.56 60.4468,-87.44 130.0975,-177.902 M 315.653,521.609 c 26.365,-42.118 55.718,-77.742 121.85,-174.176 m -589.839,832.377 c 38.242,-51.57 69.1093,-103.39 125.8005,-178.86 M 315.947,521.363 c 41.715,-46.304 70.669,-90.998 122.857,-166.824 M -147.731,1183.2 c 40.101,-55.98 71.0115,-105.34 131.4738,-180.16 M 324.635,526.589 c 31.581,-52.341 64.796,-100.148 117.543,-169.614 m -584.976,821.285 c 45.6183,-57.58 89.5013,-122.53 125.2092,-175.21 M 325.908,525.052 c 27.416,-43.395 61.499,-89.221 122.133,-167.283 M -141.22,1186.29 c 37.971,-47.64 67.5747,-98.76 131.59849,-181.71 M 332.082,525.271 c 35.36,-42.264 69.617,-95.623 117.769,-167.789 m -582.02,826.218 c 23.768,-41.64 52.9482,-83.09 127.11241,-177.64 M 332.951,527.728 c 43.262,-59.199 88.235,-128.39 124.951,-163.287 m -589.64,824.029 C -87.5811,1118.5 -34.7963,1053.69 1.63671,1005.74 M 337.622,531.796 C 378.374,474.385 411.344,423.868 456.56,360.635 M -131.18,1188.81 C -92.5445,1131.57 -57.7232,1087 4.11893,1001.6 M 342.033,531.133 c 21.438,-35.667 52.462,-73.726 117.975,-165.279 m -586.061,822.986 c 41.5343,-49.67 74.1744,-104.31 135.30418,-182.82 M 343.948,536.956 c 45.87,-64.936 99.223,-134.982 119.17,-172.408 M -119.033,1189.02 C -86.2133,1141.21 -48.9445,1087 11.7467,1009.8 M 346.124,540.124 c 32.902,-56.203 72.735,-105.386 120.204,-172.351 m -582.623,821.207 c 29.8794,-37.63 62.2596,-88.71 130.3631,-182.23 M 347.227,540.136 C 401.042,467.944 446.81,402.809 472.709,372.955 m -585.161,818.835 c 30.3727,-37.21 57.4948,-73.6 130.4462,-180.01 M 356.494,543.039 c 48.343,-66.925 92.921,-132.074 121.373,-170.924 m -585.552,823.415 c 25.4419,-45.91 56.9982,-79.26 130.9954,-185.42 M 354.689,547.953 c 48.162,-62.84 92.275,-127.056 126.486,-169.691 M -104.933,1194.9 C -55.4833,1120.6 -0.107325,1050.27 26.2786,1011.72 M 361.013,549.442 C 384.7,513.598 407.903,475.088 482.934,375.943 M -95.7687,1196.89 c 37.3304,-57.68 82.0978,-117.66 125.444,-188.42 M 363.625,549.338 c 29.839,-39.273 54.53,-74.489 119.038,-172.234 M -93.0335,1198.14 c 33.8085,-44.69 70.6371,-93.31 132.7795,-183.1 M 364.392,553.96 c 29.5,-37.843 53.086,-77.073 123.882,-174.26 m -581.423,818.34 c 36.9627,-42.5 68.7825,-87.68 133.6818,-187.19 M 368.556,550.862 C 396.432,514.129 419.996,477.724 493.7,380.579 M -90.3594,1196.37 c 34.4481,-45.38 66.1204,-91.09 138.1245,-181.64 M 373.749,556.647 C 411.631,499.732 456.371,450.048 494.014,383.91 m -574.1752,816.24 c 26.2428,-46.82 56.033,-84.35 131.7909,-186.65 M 376.531,557.958 C 421.317,489.777 474.264,423.533 496.356,388.953 M -80.6567,1198.82 c 38.7443,-52.93 78.50053,-109.38 133.2705,-185.2 M 383.791,556.626 C 408.679,520.91 433.8,476.501 504.04,387.562 M -76.8268,1199.29 c 31.8665,-37.39 63.8481,-81.56 135.6182,-182.31 M 385.32,559.944 c 38.915,-58.872 86.574,-114.902 120.116,-164.5 M -73.3151,1203.48 C -27.8376,1146.34 11.3664,1091.84 61.915,1017.57 M 386.182,566.025 C 434.018,495.436 486.787,431.303 508.054,396.293 M -67.3576,1200.88 C -35.437,1154.46 0.690763,1109.58 68.1623,1019.3 M 390.508,563.771 C 436.681,499.03 490.447,434.335 511.645,392.928 M -64.5921,1205.31 c 29.0419,-41.37 61.26501,-86.13 138.748,-191.2 M 396.746,569.285 C 419.495,528.193 449.821,487.849 512.82,395.869 M -58.6951,1207.57 c 36.8482,-51.37 70.4152,-94.49 136.9289,-190 M 394.767,567.263 C 444.182,512.806 488.866,447.31 522.866,402.727 M -51.8975,1208.66 C -1.00849,1137.42 44.9253,1069.73 84.3584,1017.97 M 404.692,572.789 C 440.737,520.63 484.042,462.115 522.686,401.842 M -52.7964,1209.5 c 47.28013,-56.99 84.2484,-119 140.5747,-187.61 M 403.858,571.902 c 37.397,-50.016 77.203,-97.277 125.182,-166.79 M -45.4533,1211.08 C -9.04934,1156.1 21.7835,1111.69 90.1618,1017.32 M 410.063,576.19 c 33.901,-43.064 59.789,-89.953 123.676,-167.033 M -39.9699,1211.06 c 40.948005,-58.75 81.041,-122.07 137.604,-194.25 M 411.083,575.224 C 451.886,523.53 493.496,466.653 533.109,407.332 M -37.9965,1209.53 C 1.14086,1161.19 33.8586,1109.56 96.9078,1017.64 M 412.926,579.668 C 459.529,514.618 501.213,453.457 537.652,410.3 m -572.8448,800.27 c 29.42767,-45.19 63.339,-84.43 141.4238,-188.88 M 420.167,583.084 c 28.624,-36.206 55.601,-78.748 118.1,-172.262 M -27.8403,1209.36 c 41.9548,-49.91 74.7464,-98.85 134.6543,-185.58 M 423.191,585.787 C 461.381,524.053 504.312,475.351 544.64,416.296 M -25.5199,1212.67 C 16.1421,1151.11 61.1947,1096.7 116.915,1024.5 M 423.359,588.952 c 43.714,-60.631 81.859,-115.211 121.64,-172.98 M -17.3406,1211.51 C 35.188,1142.25 88.6669,1073.21 116.022,1020.16 M 429.638,590.375 C 469.958,535.021 501.765,483.078 551.44,421.111 M -17.7294,1213.41 C 34.6035,1143.01 82.329,1078.36 124.981,1021.89 M 434.683,586.355 C 474.432,537.804 508.229,485.529 555.418,422.611 M -12.5524,1217.39 C 37.8092,1146.58 90.3688,1080.12 127.421,1024 M 435.626,590.537 c 48.198,-57.071 92.16,-122.845 125.313,-171.47 M -8.5,1217.1 C 50.3957,1140.68 99.7083,1068.39 133.849,1024.31 M 437.682,591.781 c 34.997,-47.149 71.401,-96.438 121.359,-168.707 M 1.25995,1218.43 C 40.2004,1165.88 76.5017,1109.16 134.352,1020.75 M 441.741,595.763 c 28.033,-34.571 51.208,-75.212 121.962,-167.576 M -0.388485,1219.59 C 31.968,1175.91 59.7981,1129.81 142.81,1022.48 M 446.033,595.995 C 488.905,538.071 528.645,477.304 566.21,425.619 M 5.5462,1215.12 c 37.1302,-41.66 65.1311,-89.61 142.0378,-190.06 M 449.27,598.727 c 33.041,-39.186 61.68,-90.056 126.793,-166.059 M 13.2411,1219.67 C 44.1842,1177.2 72.4824,1131.38 150.055,1020.75 M 451.698,601.883 c 36.42,-45.407 69.456,-91.056 124.574,-167.906 M 17.2858,1220.75 C 51.2301,1174.13 82.5627,1130.8 158.3,1022.83 M 456.84,602.702 c 34.281,-46.149 70.901,-97.781 121.998,-169.229 M 24.204,1215.68 c 47.1253,-71.17 98.256,-137.03 135.62,-191.48 M 461.439,604.269 c 37.928,-49.312 70.762,-97.974 122.479,-166.212 M 24.3422,1217.4 C 79.4666,1142.72 136.404,1069.14 164.63,1025.01 M 467.372,609.969 C 489.16,568.633 511.851,533.249 585.597,438.44 M 28.5111,1219.56 C 61.5824,1182.7 88.8494,1136.89 173.656,1022.18 M 466.294,611.995 C 498.45,557.397 535.137,506.357 593.396,440.396 M 33.2911,1218.31 C 68.4154,1178.16 94.4813,1134.68 177.33,1023.37 M 468.961,608.601 C 518.012,552.7 557.417,494.497 596.888,438.921 M 41.8159,1222.9 c 26.1307,-46.05 54.2989,-94.17 139.8311,-203.54 M 477.926,610.874 C 511.155,559.911 545.663,510.086 594.737,442.265 M 42.0747,1222.1 C 74.5015,1185 104.364,1138.53 186.363,1017.84 M 476.884,615.943 C 515.623,574.169 547.863,525.678 601.91,446.016 M 48.3776,1222.84 C 95.2237,1164.07 135.717,1106.59 195.792,1018.68 M 483.116,618.895 C 521.914,568.354 553.593,517.374 603.743,444.672 M 56.5882,1221.32 C 101.316,1149.79 158.22,1076.97 200.638,1016.28 M 485.283,620.636 C 527.886,561.812 572.805,502.19 606.449,450.406 M 60.8714,1220.47 c 28.3223,-42.41 61.3826,-85.65 143.2846,-201 M 487.31,620.533 c 26.895,-40.07 54.484,-72.816 124.812,-171.193 M 61.4797,1222.74 C 120.851,1145.16 175.253,1064.23 207.715,1019.7 M 496.526,622.821 c 27.092,-44.209 62.332,-94.463 117.059,-167.913 M 69.1154,1223.47 C 100.827,1175.78 140.151,1117.11 210.354,1018.83 M 496.047,621.712 c 28.785,-36.283 51.82,-68.451 121.026,-168.396 M 69.0277,1222.18 C 114.843,1154.8 166.162,1089.99 219.342,1021.46 M 498.516,624.605 c 45.667,-55.91 93.97,-116.122 123.358,-169.039 M 77.624,1222.24 c 48.955,-68.47 105.798,-140.22 145.595,-202.94 M 507.152,628.492 C 544.763,567.275 587.76,510.029 629.287,458.615 M 78.5874,1227.73 c 44.3686,-54.1 78.9466,-112.78 151.6766,-208.41 M 507.738,627.647 C 539.316,581.531 570.581,539.019 632.34,460.331 M 84.057,1226.12 c 31.231,-48.45 67.33,-99.16 150.438,-206.36 M 509.26,629.522 C 562.689,566.146 610.152,497.658 635.274,463.912 M 88.5105,1223.69 C 131.637,1170.01 170.273,1107.4 237.707,1015.4 M 514.883,631.594 c 30.07,-46.374 62.172,-94.227 121.228,-169.429 M 94.1974,1227.31 C 126.565,1176.15 163.877,1126.32 241.724,1015.37 M 519.96,634.275 c 41.677,-55.168 86.715,-114.255 117.287,-171.4 M 100.315,1225.65 c 25.123,-41.07 59.728,-85.1 147.982,-207.43 M 518.188,636.305 c 41.726,-54.34 81.045,-113.184 127.433,-168.579 M 101.155,1230.64 c 51.012,-72.29 102.318,-148.37 157.213,-215.34 M 522.623,637.373 C 573.356,575.902 621.844,505.77 648.108,468.824 M 108.921,1226.17 C 156.87,1157.76 210.236,1081.64 260.264,1013 M 525.616,641.303 c 27.541,-37.295 54.191,-67.235 129.522,-169.964 M 109.927,1231.04 c 39.368,-44.53 71.413,-89.69 154.856,-215.6 M 532.582,640.28 c 45.931,-59.194 86.437,-121.095 120.415,-164.693 m -532.25,755.723 c 35.639,-54.2 69.096,-103.28 152.39,-215.91 M 533.121,643.326 c 26.388,-31.982 54.424,-70.012 127.995,-167.66 M 122.254,1232.2 c 42.654,-63.38 85.17,-116.91 156.906,-218.32 M 540.87,648.818 C 588.426,579.683 640.561,512.217 661.514,473.65 m -537.508,755.88 c 58.743,-82.31 116.966,-163.58 157.275,-215.48 M 542.836,646.26 C 592.324,582.042 638.251,518.325 665.542,474.831 M 132.665,1231.59 c 48.246,-63.89 92.258,-127.09 158.478,-219.45 M 549.374,648.259 c 35.154,-44.886 72.162,-99.687 118.484,-172.72 M 138.052,1226.1 c 59.612,-79.94 116.881,-155.9 155.053,-216.02 M 552.812,650.835 c 29.547,-38.7 54.238,-79.755 123.589,-169.3 M 139.735,1227.6 c 41.532,-62.64 89.061,-122.85 162.985,-218.35 M 554.829,656.828 C 589.047,597.443 634.91,545.848 680.657,482.062 M 147,1231.29 c 52.086,-83.6 106.85,-161.82 160.191,-224.7 M 560.35,655.982 C 591.836,608.518 631.616,555.339 681.127,485.274 M 149.398,1230.18 c 45.637,-61.55 92.228,-120.09 161.307,-223.41 M 560.658,660.065 c 33.083,-50.331 63.964,-91.856 124.409,-175.212 M 154.444,1232.56 C 210.129,1153.1 259.58,1081.21 318.863,1002.37 M 567.019,657.332 C 604.553,607.319 643.69,549.65 686.975,487.774 M 161.799,1227.39 c 48.208,-74.67 103.093,-147.41 162.683,-224.15 M 565.685,658.949 c 34.278,-46.875 65.944,-88.584 126.218,-169.804 M 165.493,1228.2 c 47.833,-58.98 89.733,-126.81 162.082,-222.84 M 573.1,661.568 c 28.323,-37.745 56.205,-82.976 124.758,-169.339 M 170.677,1228.18 c 34.523,-52.04 68.834,-96.82 161.487,-223.39 M 577.108,666.011 C 616.658,612.845 652.03,559.808 703.399,493.006 M 177.021,1229.4 c 49.669,-71.31 98.23,-135.15 162.11,-225.81 M 578.643,669.091 C 610.86,622.39 636.625,584.252 701.061,494.309 M 183.288,1230.53 c 31.068,-46.27 69.315,-96.08 162.188,-230.543 M 583.412,669.182 C 624.597,607.509 664.396,548.97 704.475,495.374 M 183.683,1231.76 c 49.843,-68.05 101.735,-138.61 167.991,-233.289 M 590.543,667.537 C 621.746,618.798 655.49,567.36 708.911,499.02 m -516.197,732.22 c 46.804,-65.2 93.792,-129.75 164.417,-232.641 M 590.59,671.508 C 633.295,610.233 681.531,557.674 712.041,502.089 M 198.26,1226.59 c 48.007,-64.32 100.943,-132.31 167.487,-230.243 M 591.763,672.215 c 51.368,-63.532 97.113,-130.242 129.392,-172.28 M 201.658,1231.7 c 43.723,-63.16 87.194,-128.56 168.127,-237.677 M 597.191,678.35 c 40.39,-56.539 77.174,-111.916 127.353,-175.721 M 207.225,1228.48 c 45.011,-60.9 88.256,-126.18 172.253,-238.511 m 220.61,-312.71 c 36.558,-51.275 72.121,-98.097 123.429,-170.782 M 209.118,1231.93 c 51.034,-70.73 102.405,-137.1 174.479,-239.629 m 125.707,-175.1 c 6.587,-12.785 16.871,-21.991 28.646,-39.91 M 607.992,676.647 C 656.803,612.409 701.553,544.83 728.955,503.107 M 215.173,1229.14 c 68.761,-87.82 133.873,-176.99 176.001,-243.61 M 502.387,834.32 c 6.066,-17.539 18.399,-37.187 45.038,-66.766 m 58.787,-83.932 C 656.533,612.478 705.365,551.006 730.417,507.406 M 220.955,1227.96 c 59.658,-80.25 123.782,-168.83 177.165,-242.537 m 91.372,-129.997 c 15.233,-24.394 29.256,-44.815 69.26,-95.774 m 53.543,-76.828 c 50.238,-68.235 95.468,-135.616 128.678,-172.382 m -516.49,719.528 c 36.818,-53.19 73.643,-98.06 178.532,-246.144 m 89.966,-124.398 c 20.586,-26.6 38.66,-54.451 68.364,-105.432 m 54.043,-67.581 c 39.344,-52.893 74.458,-101.594 127.806,-174.606 m -511.86,712.911 c 49.856,-68.01 103.813,-140.68 179.21,-242.091 m 76.377,-111.855 c 20.311,-30.349 38.475,-51.942 85.568,-117.468 M 620.34,683.045 C 660.363,633.86 701.57,578.916 742.047,513.062 M 233.921,1224.47 c 52.548,-67.22 100.305,-138.24 181.823,-245.516 m 73.741,-106.607 c 27.027,-32.529 47.219,-64.797 90.537,-120.798 m 41.729,-64.05 c 29.372,-35.934 53.705,-67.722 123.928,-171.019 m -502.896,706.76 c 44.348,-65.04 87.153,-126.64 180.678,-247.934 m 64.269,-95.948 c 38.804,-53.587 79.984,-101.315 104.249,-133.782 m 35.702,-57.514 c 46.617,-70.138 96.283,-137.816 120.51,-166.722 m -501.192,706.71 c 65.278,-90.44 125.307,-176.02 184.297,-258.323 m 57.341,-80.834 c 32.329,-44.046 64.664,-88.654 108.89,-146.5 m 37.837,-48.861 C 670.653,640.799 703.036,588.466 753.435,520.468 M 254.837,1222.46 c 46.784,-72.65 99.167,-146.8 182.189,-250.631 m 50.493,-74.423 C 531.183,831.739 575.497,778.826 603.324,743.4 m 34.393,-48.716 C 673.478,633.979 707.542,586.492 758.601,522.906 M 259.464,1223.83 c 53.438,-77.57 105.887,-148.04 182.339,-256.94 m 51.008,-66.675 c 37.975,-50.594 74.715,-103.795 113.86,-157.247 m 34.947,-50.821 c 26.215,-36.129 55.54,-72.492 116.342,-169.075 M 261.083,1221.97 c 61.21,-81.49 123.702,-165.76 188.59,-260.608 m 42.573,-54.395 C 525.652,858.2 562.885,811.371 611.323,740.581 m 29.376,-46.285 C 686.781,637.93 725.905,587.304 761.287,527.17 m -489.809,697.6 C 322.175,1142.5 380.07,1064.98 458.7,959.365 m 34.227,-47.582 c 27.491,-40.874 54.274,-78.854 122.254,-173.129 m 32.949,-39.836 c 43.508,-65.533 87.444,-124.452 123.002,-167.83 M 272.888,1220.71 c 58.624,-74.94 113.448,-156.22 190.026,-264.204 m 31.15,-43.365 c 39.541,-52.907 75.256,-103.07 131.838,-173.858 m 23.063,-42.194 c 29.228,-36.849 51.251,-77.366 125.13,-170.2 M 278.835,1221 c 57.861,-78.57 120.973,-159.88 192.307,-263.056 m 28.843,-35.946 C 537.229,861.555 575.597,804.2 630.394,733.996 m 21.021,-33.838 c 31.362,-39.512 59.794,-78.487 124.05,-168.668 m -489.902,691.37 c 38.677,-57.41 87.294,-117.73 194.143,-270.256 m 19.977,-25.759 c 25.366,-44.196 59.569,-83.856 133.142,-193.121 m 21.433,-27.357 C 695.591,651.386 735.833,594.176 775.57,531.777 M 291.822,1219.63 c 67.361,-95.71 142.746,-191.78 193.173,-270.925 m 12.631,-22.259 c 40.308,-56.528 78.928,-110.685 143.072,-190.467 m 19.463,-30.733 C 698.106,647.164 739.565,595.768 779.498,534.684 M 293.632,1223.37 c 63.463,-88.98 125.581,-175.74 200.481,-276.992 m 7.151,-11.614 C 558.325,854.98 608.875,779.434 646.77,731.161 m 16.165,-20.211 c 35.092,-45.148 66.326,-92.16 122.439,-169.16 m -486.36,676.75 c 47.181,-55.42 86.867,-116.8 202.291,-278.974 m 2.115,-3.898 c 49.416,-68.363 95.114,-140.052 147.779,-206.326 m 14.039,-21.207 c 29.91,-40.344 61.261,-88.554 123.206,-165.012 M 305.997,1220.17 C 431.066,1044.76 558.018,866.967 657.53,733.101 m 10.616,-21.867 C 704.54,658.346 743.37,608.113 788.216,542.932 M 313.043,1218.34 c 73.607,-97.71 146.737,-202.18 347.59,-486.025 m 15.916,-15.752 c 26.762,-46.33 58.343,-86.69 121.043,-172.992 M 318.344,1218.44 C 452.591,1031.37 585.911,845.965 665.943,730.149 m 8.38,-8.777 C 722.091,651.959 767.539,585.875 796.265,546.933 M 324.276,1216 C 513.073,949.969 704.161,684.844 800.764,551.417 M 330.502,1215.21 C 423.871,1085.41 518.558,949.267 803.147,555.282 M 335.642,1214.15 C 467.043,1031.66 598.718,845.63 807.098,556.719 M 339.691,1212.53 C 459.662,1045.71 580.712,874.664 810.031,558.628 M 348.074,1212.49 C 499.062,998.241 656.079,785.607 813.235,561.067 M 353.769,1208.57 C 493.33,1012.72 633.063,821.173 814.266,566.28 m -457.213,642.7 C 542.431,953.946 724.11,697.742 817.071,567.928 M 363.736,1206.12 C 457.387,1080.42 547.585,952.395 820.729,571.585 M 369.636,1205.51 C 544.517,966.797 719.48,722.325 824.067,574.874 M 375.266,1205.12 C 542.028,975.614 705.25,747.123 825.122,576.32 M 381.819,1202.95 C 513.64,1019.06 643.335,835.425 828.533,581.345 M 386.783,1203.62 C 560.705,961.33 734.118,717.99 830.365,581.673 M 393.62,1202.3 C 483.997,1071.97 578.869,937.584 832.949,585.319 M 400.745,1197.58 C 531.65,1008.69 666.037,823.281 836.815,589.299 M 405.962,1197.35 C 568.58,973.587 726.574,752.516 840.021,592.363 M 411.739,1194.3 C 526.551,1036.19 641.83,875.43 843.619,594.539 M 417.266,1194.19 C 594.557,955.79 764.72,717.141 845.456,599.972 M 424.737,1190.39 C 522.741,1056.3 622.751,915.895 846.665,603.829 M 432.439,1189.57 C 564.872,999.693 700.267,811.115 850.03,606.695 M 436.871,1186.57 C 593.556,966.553 750.047,746.211 852.139,609.628 M 444.679,1186.12 C 608.736,958.899 771.442,731.1 854.874,613.291 M 448.958,1185.58 C 553.419,1041.97 655.757,899.032 854.598,617.123 M 455.294,1182.42 C 607.712,970.303 756.724,760.305 858.732,622.569 M 462.752,1179.63 C 591.069,1001.2 718.584,825.868 861.311,624.302 M 467.293,1179.61 C 557.517,1050.87 653.023,919.194 863.779,630.982 M 475.441,1176.05 C 633.567,964.228 788.175,745.532 864.193,635.184 M 480.132,1176.25 C 567.245,1049.28 655.883,926.494 865.899,638.398 M 489.43,1172.1 C 596.049,1019.19 703.639,867.168 868.682,642.547 M 494.912,1169.1 C 609.107,1004.74 724.857,845.468 869.349,644.367 M 502.993,1166.18 C 603.229,1027.19 703.688,887.25 873.569,651.525 M 509.016,1164.97 C 650.348,967.734 791.092,767.874 875.082,656.024 M 515.966,1161.14 C 605.325,1038.89 696.582,915.214 874.962,658.294 M 524.412,1159.1 C 606.546,1035.19 693.403,916.955 876.383,663.569 M 531.267,1155.01 C 636.28,1001.82 746.662,849.54 877.312,671.233 M 538.057,1150.18 C 633.795,1009.83 733.728,872.033 880.474,676.314 M 542.413,1148.05 C 617.178,1053.1 688.728,954.325 880.788,679.323 M 552.519,1146.53 C 644.49,1017.06 737.397,889.908 881.277,684.504 M 558.333,1143.24 C 667.881,987.899 777.119,836.139 881.397,692.255 M 564.088,1141.61 C 687.676,967.11 809.394,793.848 883.155,695.533 M 571.366,1138.89 C 666.495,1007.98 757.102,879.312 885.194,704.049 M 576.838,1138.71 C 698.063,966.704 817.363,796.57 883.827,709.197 M 584.09,1132.36 C 661.219,1025.33 738.443,919.455 882.636,716.72 M 592.247,1128.78 C 676.596,1005.47 763.218,885.125 885.172,724.342 M 602.212,1125.87 C 650.849,1060.37 697.83,991.531 745.5,926.283 m -0.657,-2.536 c 51.233,-72.8 102.366,-143.409 136.524,-194.63 M 607.749,1122.49 c 37.886,-62.46 82.883,-115.92 133.655,-186.941 m 6.337,-16.182 C 790.191,865.016 830.016,808.531 883.803,736.14 M 619.45,1118.66 c 47.343,-68.34 93.081,-140.836 126.389,-179.109 m 15.283,-21.498 C 789.766,878.882 823.91,832.435 882.846,742.565 M 623.513,1113.43 c 35.465,-47.06 67.722,-87.46 119.006,-165.679 m 23.459,-31.342 C 805.403,863.604 845.82,804.437 883.956,753.885 M 636.907,1108.47 c 38.974,-55.96 72.85,-103.05 106.133,-158.325 m 32.186,-41.689 c 33.845,-44.394 76.426,-100.744 99.211,-144.103 m -232.95,334.097 c 40.926,-56.66 81.355,-111.17 101.697,-143.621 m 38.949,-49.154 c 22.835,-36.422 49.471,-72.345 90.45,-129.839 M 652.569,1094.01 c 21.307,-27.91 46.646,-68.23 90.349,-130.897 m 46.368,-59.216 c 15.805,-25.896 37.123,-51.984 84.708,-114.509 M 662.155,1090.89 c 21.433,-36.97 49.349,-67.28 79.366,-114.33 m 60.186,-83.474 c 15.457,-25.415 39.681,-57.173 65.595,-89.174 M 673.327,1085.17 c 14.549,-25.79 25.96,-47.75 65.327,-98.403 m 77.325,-112.492 c 15.259,-9.207 26.645,-25.157 40.518,-47.455 m -180.599,251.89 c 17.768,-21.09 31.619,-35.2 61.155,-82.583 m -46.893,68.433 c 13.41,-17.48 24.195,-23.86 43.954,-55.82 M -182.582,48.3726 Z M -198.657,1031.33 Z M 517.127,795.383 Z"
     stroke="#454545"
     stroke-width="0.5"
     stroke-linecap="round"
     id="path2" />
</svg>
