<svg width="22" height="21" viewBox="0 0 22 21" fill="none" xmlns="http://www.w3.org/2000/svg">
<path d="M10.9809 1.22596C11.1205 0.796402 11.7282 0.796401 11.8678 1.22596L13.7026 6.87291C13.8898 7.44922 14.4269 7.83942 15.0329 7.83942H20.9704C21.4221 7.83942 21.6099 8.41739 21.2445 8.68287L16.4409 12.1729C15.9506 12.5291 15.7455 13.1604 15.9328 13.7367L17.7676 19.3837C17.9071 19.8132 17.4155 20.1704 17.0501 19.9049L12.2465 16.4149C11.7563 16.0588 11.0924 16.0588 10.6022 16.4149L5.7986 19.9049C5.43319 20.1704 4.94154 19.8132 5.08112 19.3837L6.91592 13.7367C7.10318 13.1604 6.89804 12.5291 6.4078 12.1729L1.60421 8.68287C1.23881 8.41739 1.4266 7.83942 1.87827 7.83942H7.81582C8.4218 7.83942 8.95885 7.44922 9.14611 6.87291L10.9809 1.22596Z" stroke="#FFB953" stroke-width="0.932497"/>
</svg>
