<svg width="11" height="20" viewBox="0 0 11 20" fill="none" xmlns="http://www.w3.org/2000/svg">
<path d="M9.91046 3.98974L9.94055 14.0489C9.94424 15.2813 9.45823 16.4617 8.58945 17.3304C7.72067 18.1992 6.54028 18.6852 5.30795 18.6815C4.07562 18.6779 2.8923 18.1848 2.01831 17.3108C1.14432 16.4368 0.651241 15.2535 0.647555 14.0211L0.617467 3.96195C0.61501 3.14039 0.939014 2.35347 1.5182 1.77428C2.09739 1.19509 2.88432 0.871088 3.70587 0.873545C4.52742 0.876003 5.3163 1.20472 5.89896 1.78738C6.48162 2.37004 6.81034 3.15892 6.8128 3.98048L6.83743 14.0451C6.83866 14.4559 6.67666 14.8494 6.38706 15.139C6.09747 15.4286 5.70401 15.5906 5.29323 15.5893C4.88245 15.5881 4.48801 15.4237 4.19668 15.1324C3.90535 14.8411 3.74099 14.4466 3.73976 14.0359L3.71746 4.74836" stroke="#454545" stroke-opacity="0.5" stroke-width="0.709242" stroke-linecap="round" stroke-linejoin="round"/>
</svg>
