<svg width="62" height="51" viewBox="0 0 62 51" fill="none" xmlns="http://www.w3.org/2000/svg">
<g opacity="0.2" clip-path="url(#clip0_0_1907)">
<path d="M33.5751 50.2317C38.4905 48.775 43.1501 46.5931 47.3932 43.7613C47.999 43.3697 48.5726 42.9323 49.1087 42.4531C50.1571 41.4826 50.9024 40.2367 51.7139 39.0415L54.1183 35.4357C55.6944 33.0346 57.4172 30.6877 58.6302 28.0913C59.5403 26.1537 60.0729 24.0608 60.5838 21.9856C60.7509 21.2797 60.9373 20.5939 61.0178 19.9115C61.2174 18.5528 60.6884 17.2057 60.2965 15.8211L59.6809 13.7529C58.3309 8.9072 57.1359 6.38728 52.9294 3.28268C49.3696 0.625117 47.2285 0.493357 43.0544 1.99448C42.3656 2.238 41.6815 2.47565 41.0359 2.75916C39.0836 3.59561 37.5495 5.08732 36.4002 6.83785C33.3947 11.3812 32.3656 17.8963 36.0155 22.3668C37.7756 24.6231 40.5635 25.5572 43.2744 26.3737C44.0114 26.6019 44.7724 26.8278 45.4312 27.2913C46.934 28.3054 46.952 30.3265 46.1441 31.7759C45.7834 32.4664 45.3098 33.057 44.8517 33.6217C43.0135 35.884 41.0157 38.0178 38.8732 40.0073C37.8024 40.9955 36.6988 41.9496 35.5623 42.8696C34.9997 43.3225 34.4491 43.7766 34.074 44.3531C33.6989 44.9295 33.4909 45.6072 33.3635 46.3024C33.2391 47.0028 33.1588 47.71 33.123 48.42C33.1014 49.1094 33.2084 49.8623 33.7542 50.3458L33.6845 50.427C33.3923 50.1854 33.1777 49.8664 33.0665 49.5082C32.7551 48.4435 32.9463 47.3318 33.0521 46.2518C33.2697 44.5484 33.9357 43.5884 35.2389 42.5026C38.5225 39.6614 41.5135 36.5119 44.1689 33.0993C44.9912 32.0405 45.852 30.9041 45.7173 29.5395C45.5899 28.0948 44.2134 27.6748 42.9739 27.3254C41.5697 26.9137 40.1319 26.4913 38.7566 25.836C37.3544 25.1822 36.1199 24.2291 35.1439 23.0467C32.1817 19.4845 31.9689 14.4294 33.5426 10.2519C34.5801 7.47901 36.1874 4.81556 38.6592 3.03445C39.8758 2.14153 41.3401 1.62273 42.7467 1.15216C43.4464 0.916872 44.1569 0.688643 44.8914 0.512179C48.367 -0.373674 50.6716 0.58512 53.4102 2.65446C55.1955 3.98854 56.8305 5.54613 58.0015 7.44607C59.5235 9.94363 60.0921 12.9024 60.936 15.6423C61.786 18.5104 61.982 19.1927 61.1765 22.1244C60.6427 24.229 60.0813 26.336 59.1327 28.3136C57.8668 30.9359 56.1116 33.2652 54.4898 35.6698C53.623 36.9016 51.6466 39.8426 50.787 41.0308C50.3589 41.6284 49.8708 42.1825 49.33 42.6849C48.5377 43.4143 47.5363 44.0107 46.6346 44.5907C42.5899 47.0966 38.2033 49.0298 33.6051 50.3329L33.5751 50.2317Z" fill="#454545"/>
<path d="M1.27196 50.2836C5.8154 48.874 10.1384 46.8578 14.1187 44.292C16.9331 42.5109 17.5174 41.7192 19.2966 38.9781C20.0985 37.7687 22.1158 34.7218 22.8912 33.5559C24.0802 31.7725 25.2896 29.9631 26.1817 28.0267C26.7643 26.7347 27.2336 25.3966 27.5846 24.0268C27.9237 22.6798 28.3456 21.2457 28.5464 19.894C28.6871 18.8682 28.4322 17.8835 28.1353 16.8988C27.9417 16.2236 27.4139 14.4895 27.2132 13.7966C26.6121 11.7825 26.0314 9.67907 24.9206 7.90147C23.8097 6.12389 22.236 4.63687 20.5373 3.3828C19.4145 2.55929 18.2195 1.77227 16.8826 1.38286C14.8316 0.78406 12.7783 1.38286 10.7658 2.0699C9.4109 2.52871 8.08607 2.9934 6.94277 3.83455C4.6682 5.48155 3.17386 8.01559 2.2169 10.5967C0.755019 14.4589 0.917317 19.1223 3.62108 22.4328C5.38351 24.7139 8.20388 25.6715 10.9269 26.4879C11.6218 26.7056 12.3755 26.9197 13.0488 27.3902C14.4986 28.3655 14.501 30.3313 13.722 31.7254C13.3674 32.4018 12.9009 32.9865 12.4441 33.55C11.5256 34.6794 10.5722 35.7853 9.5768 36.8441C7.58804 38.9704 5.45273 40.9609 3.18588 42.8015C2.62084 43.2556 2.05821 43.7179 1.68312 44.3144C1.30803 44.9108 1.09644 45.5932 0.976221 46.2932C0.81753 47.539 0.352278 49.4578 1.40902 50.3918C0.821138 49.9213 0.669659 49.1342 0.660042 48.4248C0.666018 47.7036 0.717814 46.9834 0.815127 46.2684C0.918517 45.5544 1.10125 44.8297 1.48956 44.1909C1.87787 43.5521 2.44412 43.0509 2.99112 42.5756C5.19082 40.6856 7.2592 38.6541 9.18248 36.4947C10.1442 35.4186 11.0683 34.3116 11.9548 33.1736C12.6028 32.3383 13.2387 31.5054 13.4707 30.4937C13.6823 29.5761 13.4587 28.5231 12.6136 27.9832C12.0822 27.6185 11.4005 27.4197 10.6985 27.215C8.5922 26.5973 6.33205 25.9209 4.55279 24.5597C-1.19616 20.0387 -0.496478 11.8543 3.23036 6.28505C4.45661 4.41688 6.20342 2.75576 8.3217 1.86284C9.02139 1.5605 9.72347 1.32051 10.4159 1.07817C12.5535 0.32878 14.941 -0.320608 17.1952 0.37231C18.6763 0.809943 19.9651 1.65815 21.1733 2.55106C22.9766 3.89219 24.6176 5.45332 25.8078 7.37443C27.355 9.88729 27.9189 12.8437 28.7688 15.6024C29.6284 18.4952 29.8231 19.2129 29.0093 22.1657C28.4755 24.2833 27.902 26.3903 26.9415 28.3784C25.6659 31.0101 23.9131 33.343 22.2757 35.7464C21.4077 36.9829 19.4217 39.9087 18.5549 41.098C18.1241 41.6991 17.6318 42.2557 17.0858 42.7592C16.2803 43.4921 15.2825 44.0803 14.364 44.6579C10.3015 47.1439 5.89145 49.039 1.27196 50.2836Z" fill="#454545"/>
</g>
<defs>
<clipPath id="clip0_0_1907">
<rect width="61.3606" height="50.3548" fill="white" transform="translate(61.6875 50.4307) rotate(-180)"/>
</clipPath>
</defs>
</svg>
