<svg width="123" height="31" viewBox="0 0 123 31" fill="none" xmlns="http://www.w3.org/2000/svg">
<path d="M120.613 28.203L107.816 15.4064L120.613 2.60987" fill="url(#paint0_linear_0_1587)"/>
<path fill-rule="evenodd" clip-rule="evenodd" d="M122.3 0.921675C123.233 1.85402 123.233 3.36565 122.3 4.298L111.192 15.4064L122.3 26.5148C123.233 27.4472 123.233 28.9588 122.3 29.8912C121.368 30.8235 119.856 30.8235 118.924 29.8912L106.127 17.0946C105.195 16.1622 105.195 14.6506 106.127 13.7183L118.924 0.921674C119.856 -0.010672 121.368 -0.0106717 122.3 0.921675Z" fill="#454545" fill-opacity="0.05"/>
<path d="M103.041 28.203L90.2446 15.4064L103.041 2.60987" fill="url(#paint1_linear_0_1587)"/>
<path fill-rule="evenodd" clip-rule="evenodd" d="M104.73 0.921675C105.662 1.85402 105.662 3.36565 104.73 4.298L93.6212 15.4064L104.73 26.5148C105.662 27.4472 105.662 28.9588 104.73 29.8912C103.797 30.8235 102.286 30.8235 101.353 29.8912L88.5567 17.0946C87.6243 16.1622 87.6243 14.6506 88.5567 13.7183L101.353 0.921674C102.286 -0.010672 103.797 -0.0106717 104.73 0.921675Z" fill="#454545" fill-opacity="0.25"/>
<path d="M85.4694 28.203L72.6728 15.4064L85.4694 2.60987" fill="url(#paint2_linear_0_1587)"/>
<path fill-rule="evenodd" clip-rule="evenodd" d="M87.1578 0.921675C88.0902 1.85402 88.0902 3.36565 87.1578 4.298L76.0494 15.4064L87.1578 26.5148C88.0902 27.4472 88.0902 28.9588 87.1578 29.8912C86.2255 30.8235 84.7138 30.8235 83.7815 29.8912L70.9849 17.0946C70.0526 16.1622 70.0526 14.6506 70.9849 13.7183L83.7815 0.921674C84.7138 -0.010672 86.2255 -0.0106717 87.1578 0.921675Z" fill="#454545" fill-opacity="0.45"/>
<path d="M67.8981 28.203L55.1016 15.4064L67.8981 2.60987" fill="url(#paint3_linear_0_1587)"/>
<path fill-rule="evenodd" clip-rule="evenodd" d="M69.5865 0.921675C70.5189 1.85402 70.5189 3.36565 69.5865 4.298L58.4781 15.4064L69.5865 26.5148C70.5189 27.4472 70.5189 28.9588 69.5865 29.8912C68.6542 30.8235 67.1425 30.8235 66.2102 29.8912L53.4136 17.0946C52.4813 16.1622 52.4813 14.6506 53.4136 13.7183L66.2102 0.921674C67.1425 -0.010672 68.6542 -0.0106717 69.5865 0.921675Z" fill="#454545" fill-opacity="0.65"/>
<path d="M50.3269 28.203L37.5303 15.4064L50.3269 2.60987" fill="url(#paint4_linear_0_1587)"/>
<path fill-rule="evenodd" clip-rule="evenodd" d="M52.0147 0.921675C52.9471 1.85402 52.9471 3.36565 52.0147 4.298L40.9063 15.4064L52.0147 26.5148C52.9471 27.4472 52.9471 28.9588 52.0147 29.8912C51.0824 30.8235 49.5708 30.8235 48.6384 29.8912L35.8418 17.0946C34.9095 16.1622 34.9095 14.6506 35.8418 13.7183L48.6384 0.921674C49.5708 -0.010672 51.0824 -0.0106717 52.0147 0.921675Z" fill="url(#paint5_linear_0_1587)" fill-opacity="0.85"/>
<path d="M32.7556 28.203L19.959 15.4064L32.7556 2.60987" fill="url(#paint6_linear_0_1587)"/>
<path fill-rule="evenodd" clip-rule="evenodd" d="M34.4439 0.921675C35.3763 1.85402 35.3763 3.36565 34.4439 4.298L23.3355 15.4064L34.4439 26.5148C35.3763 27.4472 35.3763 28.9588 34.4439 29.8912C33.5116 30.8235 32 30.8235 31.0676 29.8912L18.271 17.0946C17.3387 16.1622 17.3387 14.6506 18.271 13.7183L31.0676 0.921674C32 -0.010672 33.5116 -0.0106717 34.4439 0.921675Z" fill="#454545"/>
<path d="M15.1838 28.203L2.3872 15.4064L15.1838 2.60987" fill="url(#paint7_linear_0_1587)"/>
<path fill-rule="evenodd" clip-rule="evenodd" d="M16.8722 0.921675C17.8045 1.85402 17.8045 3.36565 16.8722 4.298L5.76374 15.4064L16.8722 26.5148C17.8045 27.4472 17.8045 28.9588 16.8722 29.8912C15.9398 30.8235 14.4282 30.8235 13.4958 29.8912L0.699257 17.0946C-0.233089 16.1622 -0.233089 14.6506 0.699257 13.7183L13.4958 0.921674C14.4282 -0.010672 15.9398 -0.0106717 16.8722 0.921675Z" fill="url(#paint8_linear_0_1587)"/>
<defs>
<linearGradient id="paint0_linear_0_1587" x1="108.592" y1="5.18828" x2="119.978" y2="5.21627" gradientUnits="userSpaceOnUse">
<stop stop-color="white"/>
<stop offset="1" stop-color="white" stop-opacity="0"/>
</linearGradient>
<linearGradient id="paint1_linear_0_1587" x1="91.0199" y1="5.18828" x2="102.406" y2="5.21627" gradientUnits="userSpaceOnUse">
<stop stop-color="white"/>
<stop offset="1" stop-color="white" stop-opacity="0"/>
</linearGradient>
<linearGradient id="paint2_linear_0_1587" x1="73.4481" y1="5.18828" x2="84.8344" y2="5.21627" gradientUnits="userSpaceOnUse">
<stop stop-color="white"/>
<stop offset="1" stop-color="white" stop-opacity="0"/>
</linearGradient>
<linearGradient id="paint3_linear_0_1587" x1="55.8768" y1="5.18828" x2="67.2631" y2="5.21627" gradientUnits="userSpaceOnUse">
<stop stop-color="white"/>
<stop offset="1" stop-color="white" stop-opacity="0"/>
</linearGradient>
<linearGradient id="paint4_linear_0_1587" x1="38.3055" y1="5.18828" x2="49.6918" y2="5.21627" gradientUnits="userSpaceOnUse">
<stop stop-color="white"/>
<stop offset="1" stop-color="white" stop-opacity="0"/>
</linearGradient>
<linearGradient id="paint5_linear_0_1587" x1="35.4171" y1="8.72546" x2="52.714" y2="8.72546" gradientUnits="userSpaceOnUse">
<stop stop-color="#454545"/>
<stop offset="1" stop-color="#454545"/>
</linearGradient>
<linearGradient id="paint6_linear_0_1587" x1="20.7342" y1="5.18828" x2="32.1205" y2="5.21627" gradientUnits="userSpaceOnUse">
<stop stop-color="white"/>
<stop offset="1" stop-color="white" stop-opacity="0"/>
</linearGradient>
<linearGradient id="paint7_linear_0_1587" x1="3.16244" y1="5.18828" x2="14.5487" y2="5.21627" gradientUnits="userSpaceOnUse">
<stop stop-color="white"/>
<stop offset="1" stop-color="white" stop-opacity="0"/>
</linearGradient>
<linearGradient id="paint8_linear_0_1587" x1="0.274552" y1="8.72546" x2="17.5714" y2="8.72546" gradientUnits="userSpaceOnUse">
<stop stop-color="#454545"/>
<stop offset="1" stop-color="#454545"/>
</linearGradient>
</defs>
</svg>
