<svg width="22" height="21" viewBox="0 0 22 21" fill="none" xmlns="http://www.w3.org/2000/svg">
<path d="M9.71766 1.08188C9.9968 0.222762 11.2122 0.222764 11.4914 1.08188L13.3262 6.72883C13.451 7.11304 13.8091 7.37317 14.213 7.37317H20.1506C21.0539 7.37317 21.4295 8.52911 20.6987 9.06007L15.8951 12.5501C15.5683 12.7875 15.4315 13.2084 15.5564 13.5926L17.3912 19.2396C17.6703 20.0987 16.687 20.8131 15.9562 20.2821L11.1526 16.7921C10.8258 16.5547 10.3832 16.5547 10.0564 16.7921L5.25283 20.2822C4.52202 20.8131 3.53872 20.0987 3.81786 19.2396L5.65267 13.5926C5.7775 13.2084 5.64075 12.7875 5.31392 12.5501L0.510336 9.06007C-0.220474 8.52911 0.155115 7.37317 1.05845 7.37317H6.996C7.39998 7.37317 7.75802 7.11304 7.88285 6.72883L9.71766 1.08188Z" fill="#FFB953"/>
</svg>
