<svg width="49" height="56" viewBox="0 0 49 56" fill="none" xmlns="http://www.w3.org/2000/svg">
<path d="M41.5901 55.7244C37.4823 52.3786 31.9667 51.375 26.988 50.1337C24.4629 49.4903 21.8921 49.0393 19.3766 48.5278C16.8339 48.0641 14.3254 47.429 11.8683 46.627C13.9525 48.2698 16.4758 49.2916 18.9558 50.1117C21.4359 50.9317 23.9829 51.5551 26.4985 52.177C31.5986 53.4083 36.6669 53.8547 41.5901 55.7244Z" fill="#454545"/>
<path d="M9.99516 36.7295C17.1595 32.0215 23.4093 26.0669 30.0161 20.6863C36.6708 15.1817 44.0995 9.65012 48.6076 2.14763L48.1896 2.54348C48.0263 2.74819 47.8872 2.97104 47.7749 3.20761C47.9618 3.03232 48.089 2.78589 48.2892 2.66379L48.1784 2.55873C45.2522 5.65401 42.0921 8.51938 38.7259 11.1294C35.3896 13.7919 31.979 16.3563 28.6665 19.0725C22.0641 24.5848 16.1425 30.7176 9.99516 36.7295Z" fill="#454545"/>
<path d="M1.10439 30.0855C3.51301 25.7815 4.28274 20.7703 5.07368 15.9809C5.86462 11.1915 6.52541 6.14895 5.48355 1.31622C4.928 5.45416 4.11782 9.75373 3.32316 13.8332C2.31354 19.2538 2.04105 24.6509 1.10964 30.0857L1.10439 30.0855Z" fill="#454545"/>
</svg>
