<svg width="49" height="56" viewBox="0 0 49 56" fill="none" xmlns="http://www.w3.org/2000/svg">
<path d="M43.5818 53.9747C39.21 50.9821 33.6301 50.4406 28.5654 49.6175C25.9956 49.1863 23.3961 48.9506 20.8468 48.6501C18.2744 48.3994 15.7218 47.9751 13.2065 47.3802C15.4201 48.844 18.0196 49.6525 20.5592 50.2634C23.0989 50.8744 25.6889 51.2839 28.2475 51.6945C33.4323 52.4974 38.5202 52.5209 43.5818 53.9747Z" fill="white"/>
<path d="M10.5168 37.6727C17.2649 32.3853 22.9979 25.9317 29.1345 20.0204C35.3084 13.9815 42.2515 7.85142 46.1202 7.14285e-05L45.7366 0.42931C45.5909 0.64689 45.4707 0.880534 45.3785 1.12562C45.5502 0.935391 45.6564 0.679248 45.8458 0.540919L45.7267 0.445439C43.068 3.77331 40.157 6.89151 37.0195 9.7724C33.9162 12.7031 30.7306 15.5422 27.6554 18.5244C21.5342 24.5665 16.143 31.1705 10.5168 37.6727Z" fill="white"/>
<path d="M1.10452 31.7908C3.14693 27.3014 3.49733 22.2436 3.88731 17.405C4.27728 12.5664 4.51651 7.48639 3.07644 2.75702C2.86687 6.92683 2.41699 11.2789 1.96427 15.4103C1.40886 20.8961 1.58607 26.2972 1.10976 31.7906L1.10452 31.7908Z" fill="white"/>
</svg>
