<svg width="886" height="1233" viewBox="0 0 886 1233" fill="none" xmlns="http://www.w3.org/2000/svg">
<path d="M-190.154 65.2397C-181.726 55.3139 -180.889 53.1614 -170.345 43.539M-191.454 78.6756C-178.8 56.4183 -167.293 33.2397 -155.242 22.1612M-192.243 83.1153C-183.745 64.1397 -168.818 41.2034 -146.455 18.6593M-196.287 93.8078C-171.338 63.4651 -151.442 40.2483 -141.492 17.16M-195.355 102.461C-179.508 72.6989 -157.913 49.4046 -124.607 6.41353M-196.979 104.88C-174.122 78.2689 -152.419 50.0544 -123.505 6.43673M-193.845 111.968C-174.665 75.374 -141.77 43.0903 -112.542 0.334098M-196.175 118.731C-167.599 75.9574 -141.707 39.6817 -108.16 2.29563M-199.196 125.405C-161.189 85.638 -134.588 38.154 -106.175 5.88595M-194.021 130.335C-153.555 86.1088 -125.142 34.3301 -100.504 1.344M-189.719 139.374C-166.888 101.905 -136.318 56.0686 -96.9004 0.550108M-190.735 142.774C-163.931 104.698 -142.6 76.0422 -86.4223 6.02789M-190.714 146.849C-170.34 114.259 -144.987 84.2703 -84.5062 2.98391M-184.948 147.178C-152.581 101.146 -116.415 54.3828 -79.1452 4.8648M-187.486 155.163C-162.505 120.476 -138.764 88.1367 -76.9943 2.93163M-178.375 161.057C-158.886 123.137 -138.077 99.5417 -69.6178 6.8779M-183.477 159.675C-144.892 110.923 -109.386 59.3863 -65.5613 4.813M-175.983 164.762C-133.11 105.082 -91.6559 40.0754 -65.8296 8.7456M-173.402 166.514C-149.293 128.092 -117.353 90.1715 -60.5145 4.72539M-169.609 168.906C-152.334 135.128 -122.166 99.8381 -56.7848 11.5608M-167.977 171.727C-140.631 129.098 -113.916 86.4256 -54.6685 11.1787M-170.187 182.076C-134.389 128.422 -97.3044 80.8266 -49.8754 8.82216M-168.694 179.176C-137.145 140.297 -107.136 95.2316 -48.4131 14.3579M-163.804 186.175C-131.392 140.114 -96.6295 97.0182 -38.0007 13.2423M-158.334 185.083C-127.054 149.072 -96.4071 102.677 -38.4511 20.9004M-160.967 189.859C-127.162 143.709 -91.9432 103.017 -34.1031 17.9372M-151.952 195.942C-108.002 129.248 -62.9044 69.8333 -31.7456 24.5557M-152.029 196.038C-119.393 158.306 -87.493 114.769 -30.6637 23.1686M-147.519 200.873C-124.567 164.394 -94.6691 127.575 -27.5111 27.1341M-146.013 202.987C-106.632 147.658 -75.1618 96.2649 -20.5382 26.4231M-145.721 209.457C-109.807 159.357 -73.4196 107.447 -16.6323 32.4984M-138.677 211.18C-100.428 142.06 -50.6713 81.1134 -14.4579 38.1855M-141.548 210.753C-111.206 175.942 -86.8788 136.357 -12.0722 41.2089M-133.479 215.913C-97.0996 164.045 -55.0726 107.671 -9.88278 39.752M-136.435 216.854C-99.3647 164.649 -62.0217 116.947 -8.38093 43.1752M-129.321 224.392C-89.9575 161.645 -46.4282 105.88 -4.53772 50.3681M-124.387 226.987C-102.05 191.899 -74.731 152.33 0.112072 51.6455M-122.982 230.202C-84.3466 172.385 -43.2237 117.028 0.131474 56.6667M-121.059 228.891C-83.7201 181.786 -48.3184 133.453 4.16883 57.5904M-116.67 230.011C-81.3079 182.753 -42.6919 128.768 7.52049 64.6213M-113.46 236.37C-70.7523 165.389 -24.7867 98.9876 7.8968 68.5707M-110.217 239.775C-76.2748 183.452 -35.6993 131.073 11.5228 67.7317M-106.207 239.849C-67.0869 184.668 -30.1595 132.733 9.48233 73.9298M-109.931 246.986C-77.9238 211.83 -51.991 172.571 12.1746 76.4796M-106.274 244.34C-66.5401 191.39 -32.2922 142.516 17.5413 79.8642M-100.701 251.809C-64.2877 197.916 -33.8915 147.687 24.5965 81.4662M-99.9929 248.967C-48.8439 187.008 -2.14336 119.101 23.3892 81.7453M-92.5772 258.057C-66.796 221.539 -37.541 185.543 24.2451 84.5377M-88.9444 258.526C-53.5024 205.47 -16.5609 150.711 33.0082 91.5787M-91.0273 258.531C-48.4111 205.27 -15.0404 156.044 33.3569 89.3006M-86.1889 261.483C-59.6672 227.559 -33.1616 191.113 38.3386 94.7701M-83.2544 266.076C-47.0483 217.054 -11.1252 168.658 39.1813 97.3604M-76.2928 270.357C-56.2266 236.205 -34.7998 203.167 45.0571 101.571M-79.81 268.476C-38.4438 223.592 -5.87979 175.344 44.2294 104.075M-76.2884 274.157C-30.6325 221.725 4.66746 162.757 48.3289 105.818M-72.2197 277.871C-31.0126 223.159 6.92713 162.426 49.9074 109.083M-64.9311 276.678C-37.1506 237.447 -7.00517 198.865 51.6365 111.887M-62.9779 282.821C-27.1456 236.077 5.53953 189.485 56.7924 109.425M-62.5432 284.087C-29.7975 240.578 -1.77813 192.027 57.8673 113.409M-57.993 284.831C-22.6012 241.257 14.0897 193.034 62.261 118.422M-57.8686 285.929C-23.1552 242.932 5.10901 196.756 69.0706 120.156M-52.638 291.68C-12.9678 227.765 36.1737 163.692 65.9717 120.658M-45.5007 296.707C-7.80965 233.81 37.5071 173.921 69.6612 121.584M-43.8348 298.142C-19.4194 261.784 3.8272 221.819 75.8162 127.984M-38.7502 297.718C-4.87816 249.378 25.7472 200.961 78.724 127.461M-38.0221 296.977C-1.40491 248.854 35.3911 204.455 85.4705 131.092M-38.96 301.397C1.79759 251.262 46.8388 198.718 82.8013 132.998M-32.3834 307.581C-5.91409 263.182 30.8951 220.878 90.2312 134.387M-27.9856 309.893C3.62981 265.636 34.1304 219.185 90.4623 141.809M-22.5165 308.078C23.0258 246.668 65.1117 186.785 91.9588 139.159M-24.5408 312.969C3.14513 276.28 29.4603 235.118 101.449 141.358M-18.0233 313.588C24.6351 258.024 59.5448 197.137 105.464 145.065M-15.4461 315.4C9.30322 276.323 39.9888 241.221 107.737 149.948M-10.3638 317.074C24.2565 268.673 59.8166 217.861 107.815 150.703M-10.1678 324.431C30.4692 262.412 72.5244 204.333 111.701 156.137M-6.44529 321.613C23.7561 287.42 49.9744 251.176 114.163 152.956M0.472037 322.373C26.512 285.254 52.036 244.064 115.476 157.959M-1.23849 325.844C46.6262 261.522 96.7633 197.93 121.621 157.978M1.60994 327.593C36.8488 276.122 73.2354 229.617 128.031 161.226M6.0049 334.017C34.0772 285.15 65.8443 246.003 126.594 163.828M7.822 334.787C39.1481 291.544 72.7716 252.656 133.023 165.663M14.5684 339.438C44.8199 293.022 77.3055 247.353 138.146 172.128M14.5912 341.01C66.1702 276.736 113.435 212.525 137.231 169.035M20.3741 340.35C51.1777 292.475 85.4358 241.404 141.35 173.96M26.8913 341.971C73.5719 276.116 120.141 206.264 141.191 172.464M28.391 343.332C60.979 291.121 100.6 244.294 146.044 178.557M29.743 347.275C74.1897 288.631 118.699 233.115 152.47 176.444M34.9146 352.046C70.2245 298.277 107.26 249.409 153.547 179.117M36.8461 353.274C66.1234 317.101 100.073 275.61 155.596 183.875M41.583 351.679C65.138 318.31 94.6711 277.675 162.211 184.371M46.1003 357.936C70.3407 317.823 91.4944 282.527 165.538 184.824M51.1509 355.648C83.1368 307.686 121.676 258.896 170.82 191.414M48.4398 357.421C88.2762 311.75 122.268 257.648 175.639 194.097M58.1373 361.875C87.9831 313.237 126.205 259.803 176.404 191.932M58.5966 365.178C105.276 303.404 150.378 241.576 181.218 198.851M63.036 363.202C104.473 300.933 150.144 238.221 180.042 195.311M68.3124 367.404C95.9987 328.636 125.397 288.422 189.397 201.925M65.8137 367.693C94.8506 332.827 119.612 296.092 186.943 202.557M68.3476 370.257C122.139 305.032 162.608 245.535 192.856 206.532M73.7008 376.377C109.307 331.33 145.323 282.065 196.408 206.875M78.8091 376.397C108.433 342.189 129.364 304.887 200.024 210.975M81.2699 378.322C116.476 322.276 159.367 267.517 204.605 208.689M87.7155 380.728C115.548 336.892 151.183 288.244 204.074 214.378M91.0371 379.744C122.695 341.686 153.674 295.985 212.098 217.092M92.4848 383.593C138.181 331.093 172.803 276.068 216.03 215.999M95.54 386.127C144.938 326.427 193.181 260.202 213.801 218.443M95.6158 387.144C128.263 353.425 153.054 323.275 219.474 219.441M102.366 390.847C129.935 359.262 155.343 320.403 222.43 219.65M105.831 393.558C144.17 334.551 183.448 280.679 224.161 222.748M108.129 396.717C155.611 328.583 200.454 261.316 230.32 225.022M112.263 396.312C145.797 351.862 172.786 310.588 237.201 227.733M113.261 399.684C153.701 350.041 193.926 290.839 240.867 228.349M121.831 399.862C152.229 360.055 190.69 307.818 243.151 232.809M120.43 402.345C161.675 354.666 200.04 297.15 246.335 234.161M125.636 402.664C166.79 349.506 209.99 289.192 248.728 235.93M127.592 408.999C160.779 363.379 193.779 324.065 252.4 242.167M134 411.814C172.986 357.198 212.077 297.381 254.296 237.722M137.857 411.199C166.42 371.114 193.797 335.083 256.25 245.755M141.554 411.169C166.07 375.962 195.686 333.22 263.568 245.299M144.29 412.782C178.525 372.112 210.712 328.215 262.044 248.392M145.506 422.031C191.782 360.65 239.358 298.801 267.092 250.863M147.513 420.754C203.005 352.193 246.629 288.061 274.694 248.037M153.079 422.45C181.878 380.38 212.489 339.705 275.972 257.391M157.649 427.718C196.181 372.897 229.616 324.617 282.953 257.694M164.202 428.723C200.655 378.34 241.032 319.272 283.059 254.274M166.506 426.726C190.299 390.156 218.73 351.172 287.421 261.875M167.39 427.609C202.751 388.705 232.228 342.777 288.758 260.492M174.161 431.286C217.188 376.499 255.73 319.973 293.637 264.91M173.379 437.307C212.926 372.412 252.899 316.72 293.634 265.22M180.774 433.767C202.067 402.669 229.59 367.004 303.306 267.943M184.636 437.298C223.292 375.159 271.791 315.855 300.762 269.323M186.292 444.185C212.03 403.88 240.355 362.378 303.508 272.724M186.95 440.602C220.095 389.334 260.734 340.041 308.092 275.783M195.229 441.555C228.335 396.466 264.043 350.31 311.65 273.949M196.435 446.234C231.82 394.101 267.587 350.998 317.648 275.31M197.664 446.778C229.806 406.765 265.791 360.798 317.307 277.122M202.749 451.46C228.952 417.828 252.948 377.028 326.062 280.964M204.028 455.163C234.329 410.021 270.978 367.973 326.705 285.555M206.833 454.358C253.443 394.371 293.831 339.906 328.565 285.867M215.066 456.718C249.829 397.42 296.728 341.171 336.414 287.911M-202.506 1042.2C-195.679 1023.9 -180.96 1006.73 -170.463 1002.21M214.244 460.569C249.931 409.58 288.317 365.304 334.943 293.688M-206.815 1055.18C-196.797 1036.59 -176.179 1017.31 -161.247 996.075M216.961 465.019C255.008 405.003 298.459 355.022 338.262 293.683M-207.865 1064.89C-192.2 1044.61 -179.231 1022.12 -151.124 988.84M225.228 464.553C271.454 402.111 320.405 330.558 342.158 294.95M-208.087 1070.73C-189.421 1047.34 -168.861 1013.2 -149.667 987.387M227.757 466.756C265.911 413.123 298.148 366.302 347.845 300.612M-210.956 1085.93C-191.424 1048.24 -164.127 1022.91 -138.782 988.262M230.065 469.7C268.692 415.442 308.511 358.243 350.137 300.653M-210.398 1088.49C-182.097 1054.28 -154.683 1018.31 -132.141 981.603M235.074 471.791C275.994 414.762 318.515 354.577 352.267 300.222M-208.854 1097.7C-176.125 1051.42 -146.629 1013.23 -130.319 985.455M234.85 474.52C280.661 403.101 330.318 340.836 360.7 304.31M-212.067 1099.2C-180.18 1061.93 -148.9 1022.67 -121.998 985.141M242.479 471.891C284.183 410.022 329.186 348.442 363.04 308.059M-206.424 1110.1C-189.084 1076.26 -161.106 1043.27 -118.21 984.578M240.218 474.081C286.358 416.199 323.569 363.193 368.087 309.33M-207.41 1116.19C-186.997 1083.6 -160.03 1048.8 -110.871 979.689M243.779 478.604C285.9 419.943 324.179 368.702 371.515 309.9M-208.965 1115.27C-182.48 1084.95 -157.445 1050.01 -109.264 979.704M251.555 477.155C289.944 425.605 329.164 372.647 373.127 312.236M-201.26 1123.94C-171.046 1071.44 -130.262 1014.84 -102.899 979.615M257.454 479.636C295.774 430.932 335.689 379.885 376.78 310.745M-202.633 1126.51C-176.762 1085.95 -147.728 1054.28 -100.561 980.816M254.071 485.224C299.638 426.327 336.146 367.233 381.475 314.792M-197.558 1130.46C-168.333 1082.9 -133.435 1043.42 -94.5833 982.019M259.086 484.131C286.845 451.842 319.514 417.81 382.46 315.616M-198.639 1134.67C-172.103 1092.43 -140.616 1059.66 -91.7965 986.349M267.391 485.531C301.401 443.799 332.384 395.425 386.045 321.861M-197.438 1138.45C-169.981 1092.75 -139.316 1054.49 -87.5287 982.932M265.795 492.707C309.037 430.093 351.215 375.319 389.268 320.191M-193.547 1138.9C-149.03 1081.38 -107.41 1021.93 -78.4032 982.728M268.059 491.652C307.659 438.551 346.661 385.85 390.12 321.573M-192.119 1144.16C-159.264 1100.61 -121.409 1052.05 -78.3122 984.589M271.59 495.742C313.649 429.583 360.856 369.194 397.067 328.967M-191.732 1150.27C-146.455 1081.52 -99.3642 1022.32 -76.1849 983.509M279.678 500.39C324.313 437.227 362.201 376.835 397.986 326.155M-188.919 1149.32C-157.855 1113.87 -131.438 1079.66 -70.7583 986.367M280.285 498.915C323.753 437.104 372.781 377.773 400.639 329.584M-186.622 1156.95C-156.179 1114.97 -122.425 1070.81 -67.9248 991.978M284.855 503.762C322.093 444.927 362.234 393.108 405.437 333.791M-181.794 1158.97C-135.552 1094.08 -89.5068 1027.58 -57.6349 993.317M290.695 505.531C326.94 447.635 369.762 390.288 408.248 336.17M-176.779 1161.5C-139.64 1108.43 -104.811 1062.68 -58.2699 991.595M294.48 502.347C344.421 438.513 386.576 368.023 411.317 338.078M-171.859 1162.09C-131.536 1098.88 -83.4563 1040.7 -52.9344 993.644M298.39 506.546C337.974 451.372 378.173 390.04 419.718 334.461M-170.708 1166.98C-143.636 1124.61 -117.493 1089.36 -47.8188 991.923M296.56 507.808C342.37 455.452 377.877 397.423 420.353 340.818M-166.051 1166.41C-133.541 1120.81 -98.3005 1075.04 -42.5345 995.802M304.863 509.265C350.646 452.342 396.253 387.19 426.379 341.785M-163.264 1171.41C-132.845 1127.32 -104.521 1084.43 -38.3979 995.901M307.231 515.726C329.817 470.209 365.976 432.386 429.124 341.816M-164.445 1173.21C-120.644 1123.14 -84.3541 1068.47 -38.3477 997.456M310.138 518.592C352.666 454.219 400.767 387.268 427.922 347.246M-156.997 1177.05C-119.814 1120.69 -85.5258 1070.55 -30.4172 996.757M312.33 515.642C341.067 474.083 374.565 433.545 434.208 346.288M-158.623 1175.69C-129.065 1130.13 -98.1762 1088.25 -28.5255 997.788M315.653 521.609C342.018 479.491 371.371 443.867 437.503 347.433M-152.336 1179.81C-114.094 1128.24 -83.2267 1076.42 -26.5355 1000.95M315.947 521.363C357.662 475.059 386.616 430.365 438.804 354.539M-147.731 1183.2C-107.63 1127.22 -76.7195 1077.86 -16.2572 1003.04M324.635 526.589C356.216 474.248 389.431 426.441 442.178 356.975M-142.798 1178.26C-97.1797 1120.68 -53.2967 1055.73 -17.5888 1003.05M325.908 525.052C353.324 481.657 387.407 435.831 448.041 357.769M-141.22 1186.29C-103.249 1138.65 -73.6453 1087.53 -9.62151 1004.58M332.082 525.271C367.442 483.007 401.699 429.648 449.851 357.482M-132.169 1183.7C-108.401 1142.06 -79.2208 1100.61 -5.05659 1006.06M332.951 527.728C376.213 468.529 421.186 399.338 457.902 364.441M-131.738 1188.47C-87.5811 1118.5 -34.7963 1053.69 1.63671 1005.74M337.622 531.796C378.374 474.385 411.344 423.868 456.56 360.635M-131.18 1188.81C-92.5445 1131.57 -57.7232 1087 4.11893 1001.6M342.033 531.133C363.471 495.466 394.495 457.407 460.008 365.854M-126.053 1188.84C-84.5187 1139.17 -51.8786 1084.53 9.25118 1006.02M343.948 536.956C389.818 472.02 443.171 401.974 463.118 364.548M-119.033 1189.02C-86.2133 1141.21 -48.9445 1087 11.7467 1009.8M346.124 540.124C379.026 483.921 418.859 434.738 466.328 367.773M-116.295 1188.98C-86.4156 1151.35 -54.0354 1100.27 14.0681 1006.75M347.227 540.136C401.042 467.944 446.81 402.809 472.709 372.955M-112.452 1191.79C-82.0793 1154.58 -54.9572 1118.19 17.9942 1011.78M356.494 543.039C404.837 476.114 449.415 410.965 477.867 372.115M-107.685 1195.53C-82.2431 1149.62 -50.6868 1116.27 23.3104 1010.11M354.689 547.953C402.851 485.113 446.964 420.897 481.175 378.262M-104.933 1194.9C-55.4833 1120.6 -0.107325 1050.27 26.2786 1011.72M361.013 549.442C384.7 513.598 407.903 475.088 482.934 375.943M-95.7687 1196.89C-58.4383 1139.21 -13.6709 1079.23 29.6753 1008.47M363.625 549.338C393.464 510.065 418.155 474.849 482.663 377.104M-93.0335 1198.14C-59.225 1153.45 -22.3964 1104.83 39.746 1015.04M364.392 553.96C393.892 516.117 417.478 476.887 488.274 379.7M-93.149 1198.04C-56.1863 1155.54 -24.3665 1110.36 40.5328 1010.85M368.556 550.862C396.432 514.129 419.996 477.724 493.7 380.579M-90.3594 1196.37C-55.9113 1150.99 -24.239 1105.28 47.7651 1014.73M373.749 556.647C411.631 499.732 456.371 450.048 494.014 383.91M-80.1612 1200.15C-53.9184 1153.33 -24.1282 1115.8 51.6297 1013.5M376.531 557.958C421.317 489.777 474.264 423.533 496.356 388.953M-80.6567 1198.82C-41.9124 1145.89 -2.15617 1089.44 52.6138 1013.62M383.791 556.626C408.679 520.91 433.8 476.501 504.04 387.562M-76.8268 1199.29C-44.9603 1161.9 -12.9787 1117.73 58.7914 1016.98M385.32 559.944C424.235 501.072 471.894 445.042 505.436 395.444M-73.3151 1203.48C-27.8376 1146.34 11.3664 1091.84 61.915 1017.57M386.182 566.025C434.018 495.436 486.787 431.303 508.054 396.293M-67.3576 1200.88C-35.437 1154.46 0.690763 1109.58 68.1623 1019.3M390.508 563.771C436.681 499.03 490.447 434.335 511.645 392.928M-64.5921 1205.31C-35.5502 1163.94 -3.32709 1119.18 74.1559 1014.11M396.746 569.285C419.495 528.193 449.821 487.849 512.82 395.869M-58.6951 1207.57C-21.8469 1156.2 11.7201 1113.08 78.2338 1017.57M394.767 567.263C444.182 512.806 488.866 447.31 522.866 402.727M-51.8975 1208.66C-1.00849 1137.42 44.9253 1069.73 84.3584 1017.97M404.692 572.789C440.737 520.63 484.042 462.115 522.686 401.842M-52.7964 1209.5C-5.51627 1152.51 31.452 1090.5 87.7783 1021.89M403.858 571.902C441.255 521.886 481.061 474.625 529.04 405.112M-45.4533 1211.08C-9.04934 1156.1 21.7835 1111.69 90.1618 1017.32M410.063 576.19C443.964 533.126 469.852 486.237 533.739 409.157M-39.9699 1211.06C0.978105 1152.31 41.0711 1088.99 97.6341 1016.81M411.083 575.224C451.886 523.53 493.496 466.653 533.109 407.332M-37.9965 1209.53C1.14086 1161.19 33.8586 1109.56 96.9078 1017.64M412.926 579.668C459.529 514.618 501.213 453.457 537.652 410.3M-35.1928 1210.57C-5.76513 1165.38 28.1462 1126.14 106.231 1021.69M420.167 583.084C448.791 546.878 475.768 504.336 538.267 410.822M-27.8403 1209.36C14.1145 1159.45 46.9061 1110.51 106.814 1023.78M423.191 585.787C461.381 524.053 504.312 475.351 544.64 416.296M-25.5199 1212.67C16.1421 1151.11 61.1947 1096.7 116.915 1024.5M423.359 588.952C467.073 528.321 505.218 473.741 544.999 415.972M-17.3406 1211.51C35.188 1142.25 88.6669 1073.21 116.022 1020.16M429.638 590.375C469.958 535.021 501.765 483.078 551.44 421.111M-17.7294 1213.41C34.6035 1143.01 82.329 1078.36 124.981 1021.89M434.683 586.355C474.432 537.804 508.229 485.529 555.418 422.611M-12.5524 1217.39C37.8092 1146.58 90.3688 1080.12 127.421 1024M435.626 590.537C483.824 533.466 527.786 467.692 560.939 419.067M-8.5 1217.1C50.3957 1140.68 99.7083 1068.39 133.849 1024.31M437.682 591.781C472.679 544.632 509.083 495.343 559.041 423.074M1.25995 1218.43C40.2004 1165.88 76.5017 1109.16 134.352 1020.75M441.741 595.763C469.774 561.192 492.949 520.551 563.703 428.187M-0.388485 1219.59C31.968 1175.91 59.7981 1129.81 142.81 1022.48M446.033 595.995C488.905 538.071 528.645 477.304 566.21 425.619M5.5462 1215.12C42.6764 1173.46 70.6773 1125.51 147.584 1025.06M449.27 598.727C482.311 559.541 510.95 508.671 576.063 432.668M13.2411 1219.67C44.1842 1177.2 72.4824 1131.38 150.055 1020.75M451.698 601.883C488.118 556.476 521.154 510.827 576.272 433.977M17.2858 1220.75C51.2301 1174.13 82.5627 1130.8 158.3 1022.83M456.84 602.702C491.121 556.553 527.741 504.921 578.838 433.473M24.204 1215.68C71.3293 1144.51 122.46 1078.65 159.824 1024.2M461.439 604.269C499.367 554.957 532.201 506.295 583.918 438.057M24.3422 1217.4C79.4666 1142.72 136.404 1069.14 164.63 1025.01M467.372 609.969C489.16 568.633 511.851 533.249 585.597 438.44M28.5111 1219.56C61.5824 1182.7 88.8494 1136.89 173.656 1022.18M466.294 611.995C498.45 557.397 535.137 506.357 593.396 440.396M33.2911 1218.31C68.4154 1178.16 94.4813 1134.68 177.33 1023.37M468.961 608.601C518.012 552.7 557.417 494.497 596.888 438.921M41.8159 1222.9C67.9466 1176.85 96.1148 1128.73 181.647 1019.36M477.926 610.874C511.155 559.911 545.663 510.086 594.737 442.265M42.0747 1222.1C74.5015 1185 104.364 1138.53 186.363 1017.84M476.884 615.943C515.623 574.169 547.863 525.678 601.91 446.016M48.3776 1222.84C95.2237 1164.07 135.717 1106.59 195.792 1018.68M483.116 618.895C521.914 568.354 553.593 517.374 603.743 444.672M56.5882 1221.32C101.316 1149.79 158.22 1076.97 200.638 1016.28M485.283 620.636C527.886 561.812 572.805 502.19 606.449 450.406M60.8714 1220.47C89.1937 1178.06 122.254 1134.82 204.156 1019.47M487.31 620.533C514.205 580.463 541.794 547.717 612.122 449.34M61.4797 1222.74C120.851 1145.16 175.253 1064.23 207.715 1019.7M496.526 622.821C523.618 578.612 558.858 528.358 613.585 454.908M69.1154 1223.47C100.827 1175.78 140.151 1117.11 210.354 1018.83M496.047 621.712C524.832 585.429 547.867 553.261 617.073 453.316M69.0277 1222.18C114.843 1154.8 166.162 1089.99 219.342 1021.46M498.516 624.605C544.183 568.695 592.486 508.483 621.874 455.566M77.624 1222.24C126.579 1153.77 183.422 1082.02 223.219 1019.3M507.152 628.492C544.763 567.275 587.76 510.029 629.287 458.615M78.5874 1227.73C122.956 1173.63 157.534 1114.95 230.264 1019.32M507.738 627.647C539.316 581.531 570.581 539.019 632.34 460.331M84.057 1226.12C115.288 1177.67 151.387 1126.96 234.495 1019.76M509.26 629.522C562.689 566.146 610.152 497.658 635.274 463.912M88.5105 1223.69C131.637 1170.01 170.273 1107.4 237.707 1015.4M514.883 631.594C544.953 585.22 577.055 537.367 636.111 462.165M94.1974 1227.31C126.565 1176.15 163.877 1126.32 241.724 1015.37M519.96 634.275C561.637 579.107 606.675 520.02 637.247 462.875M100.315 1225.65C125.438 1184.58 160.043 1140.55 248.297 1018.22M518.188 636.305C559.914 581.965 599.233 523.121 645.621 467.726M101.155 1230.64C152.167 1158.35 203.473 1082.27 258.368 1015.3M522.623 637.373C573.356 575.902 621.844 505.77 648.108 468.824M108.921 1226.17C156.87 1157.76 210.236 1081.64 260.264 1013M525.616 641.303C553.157 604.008 579.807 574.068 655.138 471.339M109.927 1231.04C149.295 1186.51 181.34 1141.35 264.783 1015.44M532.582 640.28C578.513 581.086 619.019 519.185 652.997 475.587M120.747 1231.31C156.386 1177.11 189.843 1128.03 273.137 1015.4M533.121 643.326C559.509 611.344 587.545 573.314 661.116 475.666M122.254 1232.2C164.908 1168.82 207.424 1115.29 279.16 1013.88M540.87 648.818C588.426 579.683 640.561 512.217 661.514 473.65M124.006 1229.53C182.749 1147.22 240.972 1065.95 281.281 1014.05M542.836 646.26C592.324 582.042 638.251 518.325 665.542 474.831M132.665 1231.59C180.911 1167.7 224.923 1104.5 291.143 1012.14M549.374 648.259C584.528 603.373 621.536 548.572 667.858 475.539M138.052 1226.1C197.664 1146.16 254.933 1070.2 293.105 1010.08M552.812 650.835C582.359 612.135 607.05 571.08 676.401 481.535M139.735 1227.6C181.267 1164.96 228.796 1104.75 302.72 1009.25M554.829 656.828C589.047 597.443 634.91 545.848 680.657 482.062M147 1231.29C199.086 1147.69 253.85 1069.47 307.191 1006.59M560.35 655.982C591.836 608.518 631.616 555.339 681.127 485.274M149.398 1230.18C195.035 1168.63 241.626 1110.09 310.705 1006.77M560.658 660.065C593.741 609.734 624.622 568.209 685.067 484.853M154.444 1232.56C210.129 1153.1 259.58 1081.21 318.863 1002.37M567.019 657.332C604.553 607.319 643.69 549.65 686.975 487.774M161.799 1227.39C210.007 1152.72 264.892 1079.98 324.482 1003.24M565.685 658.949C599.963 612.074 631.629 570.365 691.903 489.145M165.493 1228.2C213.326 1169.22 255.226 1101.39 327.575 1005.36M573.1 661.568C601.423 623.823 629.305 578.592 697.858 492.229M170.677 1228.18C205.2 1176.14 239.511 1131.36 332.164 1004.79M577.108 666.011C616.658 612.845 652.03 559.808 703.399 493.006M177.021 1229.4C226.69 1158.09 275.251 1094.25 339.131 1003.59M578.643 669.091C610.86 622.39 636.625 584.252 701.061 494.309M183.288 1230.53C214.356 1184.26 252.603 1134.45 345.476 999.987M583.412 669.182C624.597 607.509 664.396 548.97 704.475 495.374M183.683 1231.76C233.526 1163.71 285.418 1093.15 351.674 998.471M590.543 667.537C621.746 618.798 655.49 567.36 708.911 499.02M192.714 1231.24C239.518 1166.04 286.506 1101.49 357.131 998.599M590.59 671.508C633.295 610.233 681.531 557.674 712.041 502.089M198.26 1226.59C246.267 1162.27 299.203 1094.28 365.747 996.347M591.763 672.215C643.131 608.683 688.876 541.973 721.155 499.935M201.658 1231.7C245.381 1168.54 288.852 1103.14 369.785 994.023M597.191 678.35C637.581 621.811 674.365 566.434 724.544 502.629M207.225 1228.48C252.236 1167.58 295.481 1102.3 379.478 989.969M600.088 677.259C636.646 625.984 672.209 579.162 723.517 506.477M209.118 1231.93C260.152 1161.2 311.523 1094.83 383.597 992.301M509.304 817.201C515.891 804.416 526.175 795.21 537.95 777.291M607.992 676.647C656.803 612.409 701.553 544.83 728.955 503.107M215.173 1229.14C283.934 1141.32 349.046 1052.15 391.174 985.53M502.387 834.32C508.453 816.781 520.786 797.133 547.425 767.554M606.212 683.622C656.533 612.478 705.365 551.006 730.417 507.406M220.955 1227.96C280.613 1147.71 344.737 1059.13 398.12 985.423M489.492 855.426C504.725 831.032 518.748 810.611 558.752 759.652M612.295 682.824C662.533 614.589 707.763 547.208 740.973 510.442M224.483 1229.97C261.301 1176.78 298.126 1131.91 403.015 983.826M492.981 859.428C513.567 832.828 531.641 804.977 561.345 753.996M615.388 686.415C654.732 633.522 689.846 584.821 743.194 511.809M231.334 1224.72C281.19 1156.71 335.147 1084.04 410.544 982.629M486.921 870.774C507.232 840.425 525.396 818.832 572.489 753.306M620.34 683.045C660.363 633.86 701.57 578.916 742.047 513.062M233.921 1224.47C286.469 1157.25 334.226 1086.23 415.744 978.954M489.485 872.347C516.512 839.818 536.704 807.55 580.022 751.549M621.751 687.499C651.123 651.565 675.456 619.777 745.679 516.48M242.783 1223.24C287.131 1158.2 329.936 1096.6 423.461 975.306M487.73 879.358C526.534 825.771 567.714 778.043 591.979 745.576M627.681 688.062C674.298 617.924 723.964 550.246 748.191 521.34M246.999 1228.05C312.277 1137.61 372.306 1052.03 431.296 969.727M488.637 888.893C520.966 844.847 553.301 800.239 597.527 742.393M635.364 693.532C670.653 640.799 703.036 588.466 753.435 520.468M254.837 1222.46C301.621 1149.81 354.004 1075.66 437.026 971.829M487.519 897.406C531.183 831.739 575.497 778.826 603.324 743.4M637.717 694.684C673.478 633.979 707.542 586.492 758.601 522.906M259.464 1223.83C312.902 1146.26 365.351 1075.79 441.803 966.89M492.811 900.215C530.786 849.621 567.526 796.42 606.671 742.968M641.618 692.147C667.833 656.018 697.158 619.655 757.96 523.072M261.083 1221.97C322.293 1140.48 384.785 1056.21 449.673 961.362M492.246 906.967C525.652 858.2 562.885 811.371 611.323 740.581M640.699 694.296C686.781 637.93 725.905 587.304 761.287 527.17M271.478 1224.77C322.175 1142.5 380.07 1064.98 458.7 959.365M492.927 911.783C520.418 870.909 547.201 832.929 615.181 738.654M648.13 698.818C691.638 633.285 735.574 574.366 771.132 530.988M272.888 1220.71C331.512 1145.77 386.336 1064.49 462.914 956.506M494.064 913.141C533.605 860.234 569.32 810.071 625.902 739.283M648.965 697.089C678.193 660.24 700.216 619.723 774.095 526.889M278.835 1221C336.696 1142.43 399.808 1061.12 471.142 957.944M499.985 921.998C537.229 861.555 575.597 804.2 630.394 733.996M651.415 700.158C682.777 660.646 711.209 621.671 775.465 531.49M285.563 1222.86C324.24 1165.45 372.857 1105.13 479.706 952.604M499.683 926.845C525.049 882.649 559.252 842.989 632.825 733.724M654.258 706.367C695.591 651.386 735.833 594.176 775.57 531.777M291.822 1219.63C359.183 1123.92 434.568 1027.85 484.995 948.705M497.626 926.446C537.934 869.918 576.554 815.761 640.698 735.979M660.161 705.246C698.106 647.164 739.565 595.768 779.498 534.684M293.632 1223.37C357.095 1134.39 419.213 1047.63 494.113 946.378M501.264 934.764C558.325 854.98 608.875 779.434 646.77 731.161M662.935 710.95C698.027 665.802 729.261 618.79 785.374 541.79M299.014 1218.54C346.195 1163.12 385.881 1101.74 501.305 939.566M503.42 935.668C552.836 867.305 598.534 795.616 651.199 729.342M665.238 708.135C695.148 667.791 726.499 619.581 788.444 543.123M305.997 1220.17C431.066 1044.76 558.018 866.967 657.53 733.101M668.146 711.234C704.54 658.346 743.37 608.113 788.216 542.932M313.043 1218.34C386.65 1120.63 459.78 1016.16 660.633 732.315M676.549 716.563C703.311 670.233 734.892 629.873 797.592 543.571M318.344 1218.44C452.591 1031.37 585.911 845.965 665.943 730.149M674.323 721.372C722.091 651.959 767.539 585.875 796.265 546.933M324.276 1216C513.073 949.969 704.161 684.844 800.764 551.417M330.502 1215.21C423.871 1085.41 518.558 949.267 803.147 555.282M335.642 1214.15C467.043 1031.66 598.718 845.63 807.098 556.719M339.691 1212.53C459.662 1045.71 580.712 874.664 810.031 558.628M348.074 1212.49C499.062 998.241 656.079 785.607 813.235 561.067M353.769 1208.57C493.33 1012.72 633.063 821.173 814.266 566.28M357.053 1208.98C542.431 953.946 724.11 697.742 817.071 567.928M363.736 1206.12C457.387 1080.42 547.585 952.395 820.729 571.585M369.636 1205.51C544.517 966.797 719.48 722.325 824.067 574.874M375.266 1205.12C542.028 975.614 705.25 747.123 825.122 576.32M381.819 1202.95C513.64 1019.06 643.335 835.425 828.533 581.345M386.783 1203.62C560.705 961.33 734.118 717.99 830.365 581.673M393.62 1202.3C483.997 1071.97 578.869 937.584 832.949 585.319M400.745 1197.58C531.65 1008.69 666.037 823.281 836.815 589.299M405.962 1197.35C568.58 973.587 726.574 752.516 840.021 592.363M411.739 1194.3C526.551 1036.19 641.83 875.43 843.619 594.539M417.266 1194.19C594.557 955.79 764.72 717.141 845.456 599.972M424.737 1190.39C522.741 1056.3 622.751 915.895 846.665 603.829M432.439 1189.57C564.872 999.693 700.267 811.115 850.03 606.695M436.871 1186.57C593.556 966.553 750.047 746.211 852.139 609.628M444.679 1186.12C608.736 958.899 771.442 731.1 854.874 613.291M448.958 1185.58C553.419 1041.97 655.757 899.032 854.598 617.123M455.294 1182.42C607.712 970.303 756.724 760.305 858.732 622.569M462.752 1179.63C591.069 1001.2 718.584 825.868 861.311 624.302M467.293 1179.61C557.517 1050.87 653.023 919.194 863.779 630.982M475.441 1176.05C633.567 964.228 788.175 745.532 864.193 635.184M480.132 1176.25C567.245 1049.28 655.883 926.494 865.899 638.398M489.43 1172.1C596.049 1019.19 703.639 867.168 868.682 642.547M494.912 1169.1C609.107 1004.74 724.857 845.468 869.349 644.367M502.993 1166.18C603.229 1027.19 703.688 887.25 873.569 651.525M509.016 1164.97C650.348 967.734 791.092 767.874 875.082 656.024M515.966 1161.14C605.325 1038.89 696.582 915.214 874.962 658.294M524.412 1159.1C606.546 1035.19 693.403 916.955 876.383 663.569M531.267 1155.01C636.28 1001.82 746.662 849.54 877.312 671.233M538.057 1150.18C633.795 1009.83 733.728 872.033 880.474 676.314M542.413 1148.05C617.178 1053.1 688.728 954.325 880.788 679.323M552.519 1146.53C644.49 1017.06 737.397 889.908 881.277 684.504M558.333 1143.24C667.881 987.899 777.119 836.139 881.397 692.255M564.088 1141.61C687.676 967.11 809.394 793.848 883.155 695.533M571.366 1138.89C666.495 1007.98 757.102 879.312 885.194 704.049M576.838 1138.71C698.063 966.704 817.363 796.57 883.827 709.197M584.09 1132.36C661.219 1025.33 738.443 919.455 882.636 716.72M592.247 1128.78C676.596 1005.47 763.218 885.125 885.172 724.342M602.212 1125.87C650.849 1060.37 697.83 991.531 745.5 926.283M744.843 923.747C796.076 850.947 847.209 780.338 881.367 729.117M607.749 1122.49C645.635 1060.03 690.632 1006.57 741.404 935.549M747.741 919.367C790.191 865.016 830.016 808.531 883.803 736.14M619.45 1118.66C666.793 1050.32 712.531 977.824 745.839 939.551M761.122 918.053C789.766 878.882 823.91 832.435 882.846 742.565M623.513 1113.43C658.978 1066.37 691.235 1025.97 742.519 947.751M765.978 916.409C805.403 863.604 845.82 804.437 883.956 753.885M636.907 1108.47C675.881 1052.51 709.757 1005.42 743.04 950.145M775.226 908.456C809.071 864.062 851.652 807.712 874.437 764.353M641.487 1098.45C682.413 1041.79 722.842 987.28 743.184 954.829M782.133 905.675C804.968 869.253 831.604 833.33 872.583 775.836M652.569 1094.01C673.876 1066.1 699.215 1025.78 742.918 963.113M789.286 903.897C805.091 878.001 826.409 851.913 873.994 789.388M662.155 1090.89C683.588 1053.92 711.504 1023.61 741.521 976.56M801.707 893.086C817.164 867.671 841.388 835.913 867.302 803.912M673.327 1085.17C687.876 1059.38 699.287 1037.42 738.654 986.767M815.979 874.275C831.238 865.068 842.624 849.118 856.497 826.82M675.898 1078.71C693.666 1057.62 707.517 1043.51 737.053 996.127M690.16 1064.56C703.57 1047.08 714.355 1040.7 734.114 1008.74M-182.582 48.3726V48.3726ZM-198.657 1031.33V1031.33ZM517.127 795.383V795.383Z" stroke="#454545" stroke-width="0.5" stroke-linecap="round"/>
</svg>
