<?xml version="1.0" encoding="UTF-8" standalone="no"?>
<svg
   width="92"
   height="92"
   viewBox="0 0 92 92"
   fill="none"
   version="1.1"
   id="svg11"
   sodipodi:docname="Ellipse 22.svg"
   xml:space="preserve"
   inkscape:export-filename="four-icon.svg"
   inkscape:export-xdpi="96"
   inkscape:export-ydpi="96"
   xmlns:inkscape="http://www.inkscape.org/namespaces/inkscape"
   xmlns:sodipodi="http://sodipodi.sourceforge.net/DTD/sodipodi-0.dtd"
   xmlns="http://www.w3.org/2000/svg"
   xmlns:svg="http://www.w3.org/2000/svg"><sodipodi:namedview
     id="namedview13"
     pagecolor="#ffffff"
     bordercolor="#000000"
     borderopacity="0.25"
     inkscape:showpageshadow="2"
     inkscape:pageopacity="0.0"
     inkscape:pagecheckerboard="0"
     inkscape:deskcolor="#d1d1d1"
     showgrid="false" /><path
     d="M 4.14391,27.9557 C 10.1336,21.3609 14.9253,13.6146 21.7038,7.8759 M 3.04723,35.7632 C 13.703,25.2349 21.9782,13.6136 25.107,5.07929 M 3.29907,39.0388 C 10.3523,26.4418 18.1271,19.0878 30.503,7.43094 M 3.1777,41.2017 C 13.0055,28.6517 22.764,19.272 32.1267,6.03414 M 1,46.524 C 16.8455,28.2482 30.0991,13.1092 39.1161,3.59151 M 2.57099,47.647 C 12.2387,35.3146 22.4368,22.8863 40.3339,2.46541 M 3.98436,50.3537 C 15.3087,36.867 27.0748,18.7006 41.2074,1 M 4.62986,53.1553 C 21.4145,34.3986 36.6621,14.2739 44.2192,1.27248 M 4.87924,57.6164 C 12.3714,42.4811 23.9613,30.7177 46.7087,2.16342 M 6.0756,58.2719 C 18.8889,39.768 36.079,21.671 52.7609,2.1774 M 7.10748,61.9531 C 22.3452,40.0416 41.9056,18.7824 51.7341,3.05144 M 7.73887,64.0213 C 20.4991,45.3206 32.3765,30.2071 56.8581,1.92708 M 7.76928,65.9984 C 21.8276,44.7998 37.6743,28.656 55.614,2.20063 M 6.66311,66.793 C 24.2089,46.6758 37.9538,29.3256 58.0891,6.12629 M 10.2272,68.0313 C 20.4172,56.3507 29.8886,44.8889 63.0613,5.03345 M 11.6125,69.6947 C 28.7342,49.9303 49.9971,25.2872 65.9813,6.45798 M 13.8405,72.1668 C 32.6343,47.0181 49.4506,26.1063 66.8249,8.96218 M 12.3862,75.6678 C 33.0625,49.185 56.4246,21.164 66.4824,6.5913 M 15.9475,73.6977 C 28.2888,60.306 41.5644,44.5846 69.0157,7.8684 M 17.3076,76.631 C 37.3455,54.5042 54.0544,32.7374 71.1623,10.923 M 17.1482,76.5039 C 35.846,60.1931 53.0408,39.7839 72.269,12.7035 M 19.2974,78.1266 C 41.0636,55.8357 59.4879,32.3958 75.0323,12.1229 M 21.5105,79.541 C 44.2965,56.3704 64.3423,28.079 76.4878,13.9178 M 20.9561,81.8124 C 33.5417,64.8504 49.9218,49.3251 77.2715,13.9694 M 24.187,81.8304 C 38.5525,65.366 51.8053,50.2203 79.0868,15.3295 M 27.6913,84.0219 C 44.1227,65.2759 62.3188,40.8528 81.3096,20.7659 M 27.9436,87.5763 C 43.6992,67.9942 56.0606,48.932 81.6513,19.4111 M 30.6172,85.7054 C 41.6451,69.5402 58.5968,54.767 82.369,23.0067 M 31.1203,88.0173 C 47.1037,65.25 64.6842,47.9013 82.1971,22.6156 M 34.7333,87.5005 C 52.4541,66.397 72.7939,41.5164 85.3724,26.0132 M 37.1108,86.8925 C 45.53,75.8113 59.1887,63.356 85.7084,29.578 M 37.7583,88.5469 C 53.0834,70.3214 71.6644,47.5802 87.064,29.2022 M 41.8446,89.4783 C 58.2035,66.767 72.4249,47.3854 86.1911,34.8776 M 43.0278,90.6884 C 57.6345,74.3336 70.3172,59.2807 86.6215,35.639 M 44.9552,91 C 57.3668,77.264 65.1897,63.7451 89.5094,39.0244 M 49.1029,88.8472 C 64.395,73.2804 77.5152,59.0051 87.9369,38.1505 M 50.9987,89.1032 C 61.5272,72.6726 73.0854,57.997 87.546,44.7703 M 54.0651,87.4579 C 68.9037,72.3303 79.6884,57.0054 88.0079,46.3777 M 58.9795,87.7527 C 68.7305,72.6428 79.7531,59.9095 91,51.3779 M 62.2582,87.207 C 70.6317,75.2485 82.6843,62.8801 89.8125,52.2048 M 66.2248,82.6991 C 74.6194,73.935 79.7768,67.0038 87.995,61.0468 M 70.0715,80.4248 C 75.2098,75.8517 81.068,67.948 86.6276,63.7043 M 14.4999,14.4881 Z"
     stroke="url(#paint0_linear_0_1467)"
     stroke-width="0.5"
     stroke-linecap="round"
     id="path2"
     style="stroke:url(#paint0_linear_0_1467)" /><defs
     id="defs9"><linearGradient
       id="paint0_linear_0_1467"
       x1="1"
       y1="51.113602"
       x2="91.003998"
       y2="51.310001"
       gradientUnits="userSpaceOnUse"><stop
         stop-color="#3CA0D2"
         id="stop4" /><stop
         offset="1"
         stop-color="#48DCA6"
         id="stop6" /></linearGradient><filter
       id="filter0_d_157_293"
       x="0"
       y="0.397461"
       width="93.972702"
       height="93.972702"
       filterUnits="userSpaceOnUse"
       color-interpolation-filters="sRGB"><feFlood
         flood-opacity="0"
         result="BackgroundImageFix"
         id="feFlood123" /><feColorMatrix
         in="SourceAlpha"
         type="matrix"
         values="0 0 0 0 0 0 0 0 0 0 0 0 0 0 0 0 0 0 127 0"
         result="hardAlpha"
         id="feColorMatrix125" /><feOffset
         id="feOffset127" /><feGaussianBlur
         stdDeviation="5"
         id="feGaussianBlur129" /><feComposite
         in2="hardAlpha"
         operator="out"
         id="feComposite131" /><feColorMatrix
         type="matrix"
         values="0 0 0 0 0 0 0 0 0 0 0 0 0 0 0 0 0 0 0.08 0"
         id="feColorMatrix133" /><feBlend
         mode="normal"
         in2="BackgroundImageFix"
         result="effect1_dropShadow_157_293"
         id="feBlend135" /><feBlend
         mode="normal"
         in="SourceGraphic"
         in2="effect1_dropShadow_157_293"
         result="shape"
         id="feBlend137" /></filter></defs><g
     style="fill:none"
     id="g157"
     transform="translate(-5.6643174,6.8026286)"><circle
       cx="46.986301"
       cy="47.383801"
       r="36.986301"
       fill="#ffffff"
       id="circle119"
       style="filter:url(#filter0_d_157_293)" /></g><g
     style="fill:none"
     id="g607"
     transform="translate(30.898582,40.615626)"><path
       d="m 10.4066,29.4238 c 2.8895,0 5.2012,-0.8476 6.9349,-2.5428 1.7337,-1.7081 2.6006,-3.9041 2.6006,-6.5882 0,-2.5942 -0.8219,-4.7003 -2.4657,-6.3185 -1.631,-1.6181 -3.7757,-2.4272 -6.4341,-2.4272 -0.0129,0 -0.0321,0 -0.0578,0 -1.04025,0 -2.02912,0.1669 -2.96662,0.5008 -0.92466,0.3211 -1.68236,0.7449 -2.27311,1.2715 -0.59076,0.5265 -0.9953,1.0916 -1.21362,1.6952 0,-1.3228 0.04495,-2.4722 0.13485,-3.4482 C 4.76874,10.5775 4.9678,9.60788 5.26317,8.65754 5.55855,7.70719 5.95025,6.93022 6.43826,6.32663 6.93911,5.72303 7.60692,5.24144 8.44168,4.88185 9.28929,4.50942 10.291,4.3232 11.4468,4.3232 c 1.4769,0 3.1015,0.37886 4.8737,1.13656 0.0514,0.02569 0.1028,0.04495 0.1541,0.05779 0.0643,0.01284 0.122,0.02569 0.1734,0.03853 0.0514,0.01284 0.1092,0.01926 0.1734,0.01926 0.1413,0 0.2761,-0.02568 0.4045,-0.07705 0.1413,-0.06421 0.2633,-0.14127 0.366,-0.23117 0.1156,-0.10274 0.2184,-0.21832 0.3083,-0.34674 0.1027,-0.12843 0.1862,-0.26327 0.2504,-0.40454 0.0642,-0.15411 0.1091,-0.30822 0.1348,-0.46233 0.0386,-0.16695 0.0578,-0.32748 0.0578,-0.48159 0,-0.64212 -0.2568,-1.08519 -0.7705,-1.3292 -1.9778,-0.9375 -3.9812,-1.406246 -6.0103,-1.406246 -1.3485,0 -2.58133,0.160531 -3.69863,0.481596 C 6.75932,1.63913 5.80898,2.07577 5.01275,2.628 4.22935,3.18022 3.53586,3.8673 2.93227,4.68921 2.34151,5.49829 1.85992,6.35231 1.48749,7.25129 1.1279,8.15026 0.832523,9.15197 0.601358,10.2564 0.383036,11.348 0.228927,12.414 0.13903,13.4542 c -0.0770551,1.0402 -0.1155825,2.1511 -0.1155825,3.3326 0,1.387 0.1027395,2.6841 0.3082195,3.8913 0.218322,1.1943 0.584332,2.3373 1.098033,3.4289 0.5137,1.0916 1.15582,2.0227 1.92637,2.7933 0.78339,0.7705 1.77226,1.3869 2.96661,1.8493 1.19435,0.4495 2.55565,0.6742 4.08392,0.6742 z M 10.5607,14.61 c 0.8733,0 1.6438,0.1477 2.3116,0.4431 0.6678,0.2954 1.2072,0.7063 1.6182,1.2329 0.4109,0.5265 0.7192,1.1365 0.9246,1.83 0.2055,0.6807 0.3083,1.4384 0.3083,2.2731 0,1.7594 -0.4752,3.14 -1.4256,4.1417 -0.9503,0.9889 -2.318,1.4833 -4.1031,1.4833 -1.68238,0 -3.00516,-0.5201 -3.96834,-1.5603 -0.95034,-1.0403 -1.42552,-2.3695 -1.42552,-3.9876 0,-0.899 0.12201,-1.7081 0.36601,-2.4272 C 5.4237,17.3198 5.78971,16.7098 6.26489,16.2089 6.7529,15.6952 7.3565,15.3035 8.07567,15.0338 8.80769,14.7513 9.63603,14.61 10.5607,14.61 Z"
       fill="#454545"
       id="path598" /></g></svg>
