<?xml version="1.0" encoding="UTF-8" standalone="no"?>
<svg
   width="92"
   height="92"
   viewBox="0 0 92 92"
   fill="none"
   version="1.1"
   id="svg11"
   sodipodi:docname="Ellipse 22.svg"
   xml:space="preserve"
   inkscape:export-filename="one-icon.svg"
   inkscape:export-xdpi="96"
   inkscape:export-ydpi="96"
   xmlns:inkscape="http://www.inkscape.org/namespaces/inkscape"
   xmlns:sodipodi="http://sodipodi.sourceforge.net/DTD/sodipodi-0.dtd"
   xmlns="http://www.w3.org/2000/svg"
   xmlns:svg="http://www.w3.org/2000/svg"><sodipodi:namedview
     id="namedview13"
     pagecolor="#ffffff"
     bordercolor="#000000"
     borderopacity="0.25"
     inkscape:showpageshadow="2"
     inkscape:pageopacity="0.0"
     inkscape:pagecheckerboard="0"
     inkscape:deskcolor="#d1d1d1"
     showgrid="false" /><path
     d="M 4.14391,27.9557 C 10.1336,21.3609 14.9253,13.6146 21.7038,7.8759 M 3.04723,35.7632 C 13.703,25.2349 21.9782,13.6136 25.107,5.07929 M 3.29907,39.0388 C 10.3523,26.4418 18.1271,19.0878 30.503,7.43094 M 3.1777,41.2017 C 13.0055,28.6517 22.764,19.272 32.1267,6.03414 M 1,46.524 C 16.8455,28.2482 30.0991,13.1092 39.1161,3.59151 M 2.57099,47.647 C 12.2387,35.3146 22.4368,22.8863 40.3339,2.46541 M 3.98436,50.3537 C 15.3087,36.867 27.0748,18.7006 41.2074,1 M 4.62986,53.1553 C 21.4145,34.3986 36.6621,14.2739 44.2192,1.27248 M 4.87924,57.6164 C 12.3714,42.4811 23.9613,30.7177 46.7087,2.16342 M 6.0756,58.2719 C 18.8889,39.768 36.079,21.671 52.7609,2.1774 M 7.10748,61.9531 C 22.3452,40.0416 41.9056,18.7824 51.7341,3.05144 M 7.73887,64.0213 C 20.4991,45.3206 32.3765,30.2071 56.8581,1.92708 M 7.76928,65.9984 C 21.8276,44.7998 37.6743,28.656 55.614,2.20063 M 6.66311,66.793 C 24.2089,46.6758 37.9538,29.3256 58.0891,6.12629 M 10.2272,68.0313 C 20.4172,56.3507 29.8886,44.8889 63.0613,5.03345 M 11.6125,69.6947 C 28.7342,49.9303 49.9971,25.2872 65.9813,6.45798 M 13.8405,72.1668 C 32.6343,47.0181 49.4506,26.1063 66.8249,8.96218 M 12.3862,75.6678 C 33.0625,49.185 56.4246,21.164 66.4824,6.5913 M 15.9475,73.6977 C 28.2888,60.306 41.5644,44.5846 69.0157,7.8684 M 17.3076,76.631 C 37.3455,54.5042 54.0544,32.7374 71.1623,10.923 M 17.1482,76.5039 C 35.846,60.1931 53.0408,39.7839 72.269,12.7035 M 19.2974,78.1266 C 41.0636,55.8357 59.4879,32.3958 75.0323,12.1229 M 21.5105,79.541 C 44.2965,56.3704 64.3423,28.079 76.4878,13.9178 M 20.9561,81.8124 C 33.5417,64.8504 49.9218,49.3251 77.2715,13.9694 M 24.187,81.8304 C 38.5525,65.366 51.8053,50.2203 79.0868,15.3295 M 27.6913,84.0219 C 44.1227,65.2759 62.3188,40.8528 81.3096,20.7659 M 27.9436,87.5763 C 43.6992,67.9942 56.0606,48.932 81.6513,19.4111 M 30.6172,85.7054 C 41.6451,69.5402 58.5968,54.767 82.369,23.0067 M 31.1203,88.0173 C 47.1037,65.25 64.6842,47.9013 82.1971,22.6156 M 34.7333,87.5005 C 52.4541,66.397 72.7939,41.5164 85.3724,26.0132 M 37.1108,86.8925 C 45.53,75.8113 59.1887,63.356 85.7084,29.578 M 37.7583,88.5469 C 53.0834,70.3214 71.6644,47.5802 87.064,29.2022 M 41.8446,89.4783 C 58.2035,66.767 72.4249,47.3854 86.1911,34.8776 M 43.0278,90.6884 C 57.6345,74.3336 70.3172,59.2807 86.6215,35.639 M 44.9552,91 C 57.3668,77.264 65.1897,63.7451 89.5094,39.0244 M 49.1029,88.8472 C 64.395,73.2804 77.5152,59.0051 87.9369,38.1505 M 50.9987,89.1032 C 61.5272,72.6726 73.0854,57.997 87.546,44.7703 M 54.0651,87.4579 C 68.9037,72.3303 79.6884,57.0054 88.0079,46.3777 M 58.9795,87.7527 C 68.7305,72.6428 79.7531,59.9095 91,51.3779 M 62.2582,87.207 C 70.6317,75.2485 82.6843,62.8801 89.8125,52.2048 M 66.2248,82.6991 C 74.6194,73.935 79.7768,67.0038 87.995,61.0468 M 70.0715,80.4248 C 75.2098,75.8517 81.068,67.948 86.6276,63.7043 M 14.4999,14.4881 Z"
     stroke="url(#paint0_linear_0_1467)"
     stroke-width="0.5"
     stroke-linecap="round"
     id="path2"
     style="stroke:url(#paint0_linear_0_1467)" /><defs
     id="defs9"><linearGradient
       id="paint0_linear_0_1467"
       x1="1"
       y1="51.113602"
       x2="91.003998"
       y2="51.310001"
       gradientUnits="userSpaceOnUse"><stop
         stop-color="#3CA0D2"
         id="stop4" /><stop
         offset="1"
         stop-color="#48DCA6"
         id="stop6" /></linearGradient><filter
       id="filter0_d_157_293"
       x="0"
       y="0.397461"
       width="93.972702"
       height="93.972702"
       filterUnits="userSpaceOnUse"
       color-interpolation-filters="sRGB"><feFlood
         flood-opacity="0"
         result="BackgroundImageFix"
         id="feFlood123" /><feColorMatrix
         in="SourceAlpha"
         type="matrix"
         values="0 0 0 0 0 0 0 0 0 0 0 0 0 0 0 0 0 0 127 0"
         result="hardAlpha"
         id="feColorMatrix125" /><feOffset
         id="feOffset127" /><feGaussianBlur
         stdDeviation="5"
         id="feGaussianBlur129" /><feComposite
         in2="hardAlpha"
         operator="out"
         id="feComposite131" /><feColorMatrix
         type="matrix"
         values="0 0 0 0 0 0 0 0 0 0 0 0 0 0 0 0 0 0 0.08 0"
         id="feColorMatrix133" /><feBlend
         mode="normal"
         in2="BackgroundImageFix"
         result="effect1_dropShadow_157_293"
         id="feBlend135" /><feBlend
         mode="normal"
         in="SourceGraphic"
         in2="effect1_dropShadow_157_293"
         result="shape"
         id="feBlend137" /></filter></defs><g
     style="fill:none"
     id="g157"
     transform="translate(-5.6643174,6.8026286)"><circle
       cx="46.986301"
       cy="47.383801"
       r="36.986301"
       fill="#ffffff"
       id="circle119"
       style="filter:url(#filter0_d_157_293)" /></g><g
     style="fill:none"
     id="g299"
     transform="translate(32.672469,40.855228)"><path
       d="m 18.7478,8.04281 c 0,-1.05308 -0.2119,-2.0548 -0.6357,-3.00514 C 17.6883,4.07449 17.1039,3.23973 16.3591,2.53339 15.6142,1.82706 14.7088,1.26841 13.6429,0.85745 12.577,0.433648 11.434,0.221748 10.2139,0.221748 8.54442,0.221748 7.09965,0.427227 5.87961,0.838186 4.67242,1.2363 3.43312,1.82063 2.16172,2.59118 1.60949,2.91224 1.33338,3.34889 1.33338,3.90111 c 0,0.46233 0.17337,0.87971 0.52012,1.25214 0.35959,0.37244 0.7577,0.55865 1.19435,0.55865 0.20548,0 0.39811,-0.04495 0.57791,-0.13484 C 3.80555,5.48716 4.09451,5.32021 4.49263,5.0762 4.90358,4.81935 5.23749,4.62671 5.49434,4.49829 5.76403,4.36986 6.1172,4.22218 6.55384,4.05522 7.00333,3.88827 7.49776,3.76627 8.03715,3.68921 8.57653,3.61216 9.1737,3.57363 9.82867,3.57363 c 1.36133,0 2.51073,0.44307 3.44823,1.3292 0.9503,0.88613 1.4255,2.03553 1.4255,3.4482 0,1.64383 -0.9504,3.42247 -2.851,5.33607 L 1.8535,23.762 c -0.16695,0.1669 -0.31464,0.3403 -0.44307,0.5201 -0.11558,0.167 -0.2119,0.3403 -0.28895,0.5201 -0.07706,0.167 -0.134848,0.3404 -0.173375,0.5201 -0.038527,0.167 -0.057791,0.334 -0.057791,0.5009 0,0.6164 0.237586,1.1366 0.712756,1.5604 C 2.07824,27.7945 2.70752,28 3.49091,28 H 16.8792 c 0.5008,0 0.8861,-0.1605 1.1558,-0.4816 0.2825,-0.3339 0.4238,-0.7192 0.4238,-1.1558 0,-0.4495 -0.1413,-0.8284 -0.4238,-1.1366 -0.2825,-0.321 -0.6678,-0.4816 -1.1558,-0.4816 H 5.57139 l 8.61091,-8.2256 c 1.6053,-1.464 2.7675,-2.8703 3.4867,-4.2187 0.7192,-1.3613 1.0788,-2.78041 1.0788,-4.25729 z"
       fill="#454545"
       id="path290" /></g></svg>
